<svg width="53" height="53" viewBox="0 0 53 53" fill="none" xmlns="http://www.w3.org/2000/svg">
<path d="M6.32675 4.16558L1.59993 3.51306C1.7641 3.0147 1.67377 2.09928 3.45179e-05 2.42554C-0.00759574 1.45601 1.24721 0.446519 6.32675 4.16558Z" fill="#584EBE"/>
<path d="M24.1973 4.48902L19.3322 4.44563C18.8882 3.37761 15.1458 0.76162 14.3799 0C15.1478 0.838052 17.2542 2.16729 19.5359 0.779603C18.9422 1.69791 19.0433 3.7256 24.1973 4.48902Z" fill="#584EBE"/>
<path d="M28.7671 4.48902L33.6322 4.44563C34.0759 3.37761 37.8186 0.76162 38.5845 0C37.8166 0.838052 35.7102 2.16729 33.4285 0.779603C34.0222 1.69791 33.9211 3.7256 28.7671 4.48902Z" fill="#584EBE"/>
<path d="M26.4823 6.60131C26.4823 6.60131 27.3046 5.353 27.6087 4.86993L26.4823 3.35498L25.3558 4.86993C25.66 5.353 26.4823 6.60131 26.4823 6.60131Z" fill="#584EBE"/>
<path fill-rule="evenodd" clip-rule="evenodd" d="M26.0219 12.8261C25.9042 13.0796 25.7773 13.3116 25.6471 13.5202H24.0486V12.4075H22.2502V10.076H18.3162V9.36148H16.5178V11.1599H18.3162V10.5978H21.73V12.9582H23.599V13.9698H25.336C25.1342 14.232 24.9358 14.4362 24.7624 14.5762C24.9484 14.7892 25.1344 15.0412 25.3093 15.3186H22.915V16.2178H20.227V14.6442H16.4055V16.555H13.8202V15.8806H12.0219V17.679H13.8202V17.117H16.855V15.0938H19.7774V16.6674H23.4269V15.7682H25.5704C25.7462 16.0975 25.9016 16.449 26.022 16.8049V31.9786C26.7413 33.6871 24.5983 39.8841 23.4368 42.769C24.246 42.9488 25.7972 45.8413 26.4716 47.265L20.964 42.5442C23.4818 40.8357 24.4859 29.1686 24.6732 23.5486L20.964 19.6146C9.63412 20.6037 8.7054 23.5486 8.81778 24.8974L4.097 25.4595L3.49846 20.9106C3.80593 16.3565 6.448 14.654 7.84616 14.3745C5.43155 14.2867 3.01672 10.7264 1.86598 7.97578L1.80394 7.47451L1.51184 4.59985L6.00781 5.11509C5.59567 5.30241 5.96287 5.90187 10.7286 6.80108C15.4943 7.7003 17.7793 7.17578 19.1656 6.80108L19.9524 5.67711H24.6732L26.022 7.60394V12.826L26.0219 12.8261Z" fill="#584EBE"/>
<path fill-rule="evenodd" clip-rule="evenodd" d="M6.33736 4.30295C1.25785 0.583727 0.00310069 1.59316 0.0106539 2.56279C1.6844 2.23654 1.77467 3.15183 1.61054 3.65029L6.33736 4.30295Z" fill="#584EBE"/>
<path fill-rule="evenodd" clip-rule="evenodd" d="M0.12915 7.97607L1.23618 16.9173L1.76167 20.9109C2.06914 16.3568 4.27243 14.6543 5.67059 14.3748C3.25598 14.287 1.27989 10.7266 0.12915 7.97607Z" fill="#584EBE"/>
<path fill-rule="evenodd" clip-rule="evenodd" d="M26.9426 12.826V7.60395L28.2914 5.67711H33.0122L33.799 6.80108C35.1853 7.17578 37.4702 7.7003 42.236 6.80108C47.0017 5.90187 47.3689 5.30241 46.9568 5.11509L51.4528 4.59985L51.1607 7.47451L51.0986 7.97578C49.9479 10.7264 47.533 14.2867 45.1184 14.3745C46.5166 14.654 49.1587 16.3565 49.4661 20.9106L48.8676 25.4595L44.1468 24.8974C44.2592 23.5486 43.3305 20.6038 32.0006 19.6146L28.2914 23.5486C28.4787 29.1686 29.4828 40.8357 32.0006 42.5442L26.493 47.265C27.1674 45.8413 28.7185 42.9488 29.5278 42.769C28.3663 39.8841 26.2233 33.6871 26.9426 31.9786V16.8049C27.063 16.449 27.2184 16.0975 27.3942 15.7682H29.5377V16.6674H33.1872V15.0938H36.1096V17.117H39.1444V17.679H40.9427V15.8806H39.1444V16.555H36.5591V14.6442H32.7376V16.2178H30.0496V15.3186H27.6553C27.8302 15.0412 28.0162 14.7892 28.2022 14.5762C28.0288 14.4362 27.8304 14.2321 27.6286 13.9698H29.3656V12.9582H31.2346V10.5978H34.6484V11.1599H36.4468V9.36148H34.6484V10.076H30.7144V12.4075H28.916V13.5202H27.3175C27.1873 13.3116 27.0604 13.0796 26.9427 12.8261L26.9426 12.826Z" fill="#584EBE"/>
<path fill-rule="evenodd" clip-rule="evenodd" d="M46.627 4.30295C51.7065 0.583727 52.9613 1.59316 52.9537 2.56279C51.28 2.23654 51.1897 3.15183 51.3538 3.65029L46.627 4.30295Z" fill="#584EBE"/>
<path fill-rule="evenodd" clip-rule="evenodd" d="M52.8352 7.97607L51.7282 16.9173L51.2027 20.9109C50.8952 16.3568 48.6919 14.6543 47.2938 14.3748C49.7084 14.287 51.6845 10.7266 52.8352 7.97607Z" fill="#584EBE"/>
<path d="M24.0592 42.1823C24.5837 41.2831 25.7227 37.9561 26.0824 35.8879C26.532 37.0119 25.408 41.5079 24.0592 42.1823Z" fill="#584EBE"/>
<path d="M28.9219 42.2949C28.3974 41.3957 27.2583 38.0686 26.8987 36.0005C26.4491 37.1245 27.5731 41.6205 28.9219 42.2949Z" fill="#584EBE"/>
<path d="M24.3253 42.7446C24.4182 42.9042 25.3464 43.303 26.0891 45.2174C26.2748 44.3931 25.7177 43.0636 24.3253 42.7446Z" fill="#584EBE"/>
<path d="M28.5964 42.7446C28.5035 42.9042 27.5753 43.303 26.8326 45.2174C26.6469 44.3931 27.204 43.0636 28.5964 42.7446Z" fill="#584EBE"/>
<path d="M33.8685 40.3839C35.4797 38.5106 40.5001 34.6515 47.6937 34.2019C45.146 34.7264 38.8141 36.6972 33.8685 40.3839Z" fill="#584EBE"/>
<path d="M34.2058 43.1938L35.3298 42.2946C31.8229 40.9458 38.5894 38.9601 42.4109 38.1358L50.7285 35.7754L42.1861 39.7094C34.1833 40.4287 35.8542 41.8825 37.6902 42.5194L39.3762 43.1938L27.4618 52.1857C28.1362 50.2749 34.1053 44.8798 34.2058 43.1938Z" fill="#584EBE"/>
<path d="M19.0959 40.3839C17.4848 38.5106 12.4644 34.6515 5.27079 34.2019C7.81844 34.7264 14.1504 36.6972 19.0959 40.3839Z" fill="#584EBE"/>
<path d="M18.7587 43.1938L17.6347 42.2946C21.1416 40.9458 14.3751 38.9601 10.5535 38.1358L2.23596 35.7754L10.7783 39.7094C18.7812 40.4287 17.1103 41.8825 15.2743 42.5194L13.5883 43.1938L25.5027 52.1857C24.8283 50.2749 18.8592 44.8798 18.7587 43.1938Z" fill="#584EBE"/>
<path d="M19.8946 39.4847C19.9845 38.3158 17.3843 36.1503 16.073 35.2135C20.9287 35.2135 22.5173 31.242 22.7046 29.2563C23.0418 31.2795 19.7822 40.9459 19.8946 39.4847Z" fill="#584EBE"/>
<path d="M33.0698 39.4847C32.9799 38.3158 35.5802 36.1503 36.8914 35.2135C32.0357 35.2135 30.4471 31.242 30.2598 29.2563C29.9226 31.2795 33.1822 40.9459 33.0698 39.4847Z" fill="#584EBE"/>
<path d="M26.4768 40.0962C26.4768 40.0962 27.2991 41.3445 27.6033 41.8276L26.4768 43.3425L25.3503 41.8276C25.6545 41.3445 26.4768 40.0962 26.4768 40.0962Z" fill="#584EBE"/>
</svg>
