<svg width="41" height="54" viewBox="0 0 41 54" fill="none" xmlns="http://www.w3.org/2000/svg">
<path d="M16.9673 3.29471C17.6219 3.47764 17.7605 4.98385 17.748 5.71409C17.7387 5.48364 17.5406 4.96676 16.8215 4.74298C16.1023 4.51921 16.025 4.01453 16.0763 3.79011C16.1005 3.54876 16.3127 3.11178 16.9673 3.29471Z" fill="#584EBE"/>
<path d="M23.1495 3.29471C22.4949 3.47764 22.3563 4.98385 22.3688 5.71409C22.3779 5.48364 22.576 4.96676 23.2951 4.74298C24.0143 4.51921 24.0918 4.01453 24.0405 3.79011C24.0163 3.54876 23.8041 3.11178 23.1495 3.29471Z" fill="#584EBE"/>
<path d="M36.6176 33.3172C36.8129 33.9682 35.6139 34.8904 34.9901 35.2701C35.18 35.1393 35.5109 34.6956 35.3156 33.9682C35.1203 33.2409 35.5055 32.9056 35.7225 32.829C35.9394 32.7206 36.4223 32.6662 36.6176 33.3172Z" fill="#584EBE"/>
<path d="M27.748 46.0266C27.3703 47.7781 24.6731 48.0333 22.7843 48.2237C23.6027 47.8746 25.2396 46.7767 25.2396 45.1776C25.2396 43.5784 28.4732 43.3413 29.701 43.3413C29.8584 43.373 28.1258 44.2751 27.748 46.0266Z" fill="#584EBE"/>
<path d="M37.2688 35.4195C34.4695 35.8101 32.4406 38.5944 32.0609 40.1676C32.7119 38.8115 35.0554 36.8029 36.9433 37.7793C38.8311 38.7558 39.7913 36.6131 40.0354 35.4195C40.2796 35.2568 40.068 35.0289 37.2688 35.4195Z" fill="#584EBE"/>
<path fill-rule="evenodd" clip-rule="evenodd" d="M22.6971 48.817C24.9334 48.9249 29.6487 48.0981 30.6196 43.9286C31.5907 39.7589 35.6613 38.7905 37.4694 38.8729C33.0439 49.3088 26.1609 49.9376 22.9631 48.9166C22.8736 48.8879 22.7517 48.8376 22.6971 48.817ZM33.3628 41.9579C32.8687 41.9579 32.4677 42.3589 32.4677 42.853C32.4677 43.3471 32.8687 43.7481 33.3628 43.7481C33.8569 43.7481 34.2579 43.3471 34.2579 42.853C34.2579 42.3589 33.8569 41.9579 33.3628 41.9579Z" fill="#584EBE"/>
<path fill-rule="evenodd" clip-rule="evenodd" d="M1.76628 13.6469C1.64676 13.232 1.54619 12.8211 1.46467 12.4197C1.56607 12.7906 1.66848 13.2037 1.76628 13.6469ZM38.3504 13.6467C37.5326 17.3522 37.0351 23.1606 40.1167 23.9746C38.4621 23.622 35.6412 24.7884 34.4206 31.2168C33.5255 35.3218 31.8167 38.2149 31.8167 38.2149L29.05 42.609L26.0393 39.3541L21.9706 34.5531L24.9 43.0973C24.3846 43.8296 23.0122 45.4408 21.6451 46.0267L20.0584 40.8697L18.4716 46.0267C17.1045 45.4408 15.7321 43.8296 15.2167 43.0973L18.1461 34.5531L14.0775 39.3541L11.0667 42.609L8.30002 38.2149C8.30002 38.2149 6.5912 35.3218 5.69608 31.2168C4.47549 24.7884 1.65458 23.622 0 23.9746C3.08163 23.1606 2.58422 17.3523 1.76632 13.6468C2.88759 17.5381 5.67819 21.7776 10.0902 21.7776C8.26745 22.8192 6.94382 24.4087 6.91667 25.1139C7.18798 26.9313 7.47002 28.9221 8.70686 30.4845C10.2529 32.4374 10.1716 32.1933 11.3922 32.9257C11.8524 33.2019 13.8333 33.658 15.4608 31.5423C18.7971 26.66 18.6018 20.9801 16.5186 18.4413C14.4355 15.9025 12.3686 15.5391 10.497 16.407C10.2801 16.4883 10.0088 16.5534 10.6598 16.1629C11.3108 15.7723 13.4807 15.0236 14.4843 14.6982C18.7808 14.1123 19.4209 6.45238 19.7736 2.49223C19.8685 1.45713 20.0584 0 20.0584 0C20.0584 0 20.2483 1.41167 20.3432 2.49223C20.6959 6.45238 21.336 14.1123 25.6325 14.6982C26.6361 15.0236 28.806 15.7723 29.457 16.1629C30.108 16.5534 29.8367 16.4883 29.6198 16.407C27.7482 15.5391 25.6813 15.9025 23.5982 18.4413C21.515 20.9801 21.3197 26.66 24.656 31.5423C26.2835 33.658 28.2644 33.2019 28.7246 32.9257C29.9452 32.1933 29.8639 32.4374 31.4099 30.4845C32.6468 28.9221 32.9288 26.9313 33.2001 25.1139C33.1729 24.4087 31.8494 22.8192 30.0266 21.7776C34.4387 21.7776 37.2293 17.538 38.3505 13.6467H38.3504ZM38.3504 13.6467C38.4483 13.2036 38.5506 12.7906 38.652 12.4197C38.5705 12.8211 38.47 13.2319 38.3504 13.6467ZM20.0583 32.5789L20.5957 31.978L20.1968 31.4623L20.4038 31.2619L20.7092 31.267L20.8076 31.4724L21.1131 31.4774L21.1181 31.1719L21.1215 30.9683L21.0197 30.9665L20.8161 30.9633L20.7126 31.0633L20.4071 31.0583L20.307 30.9548L20.3104 30.7512C20.2525 30.1393 20.1783 28.8753 20.3439 28.715L20.6526 28.5164C20.9218 28.6567 21.4597 28.9778 21.4571 29.1407C21.4543 29.3036 21.2184 29.2047 21.1516 29.1357L21.7509 29.8584L21.8661 29.0457C21.8316 29.079 21.7422 29.1454 21.6607 29.1441C21.5588 29.1423 21.7759 28.3312 20.4557 28.1058C20.3542 28.0884 20.1716 27.8988 20.0583 27.5914C19.9451 27.8988 19.7625 28.0884 19.6609 28.1058C18.3407 28.3312 18.5578 29.1424 18.4559 29.1441C18.3744 29.1454 18.285 29.079 18.2506 29.0457L18.3658 29.8584L18.965 29.1357C18.8983 29.2047 18.6623 29.3036 18.6595 29.1407C18.6569 28.9778 19.1948 28.6567 19.464 28.5164L19.7727 28.715C19.9384 28.8753 19.8642 30.1393 19.8062 30.7512L19.8096 30.9548L19.7096 31.0583L19.4041 31.0634L19.3006 30.9633L19.097 30.9665L18.9951 30.9683L18.9985 31.1719L19.0036 31.4774L19.3091 31.4724L19.4075 31.267L19.7128 31.2619L19.9199 31.4623L19.521 31.978L20.0583 32.5789ZM15.3978 35.2409L11.2037 38.8791L8.27292 34.8367L11.2037 40.0919L15.3978 35.2409ZM24.7189 35.2409L28.913 40.0919L31.8438 34.8367L28.913 38.8791L24.7189 35.2409ZM19.2853 15.2206C19.4941 15.4725 19.8549 16.1629 20.099 16.7325C20.3289 16.1573 20.5873 15.5933 20.9127 15.2206C20.6686 15.0237 20.3431 14.6168 20.099 14.0472C19.7807 14.7192 19.6108 14.9423 19.2853 15.2206ZM6.65502 29.6986L3.26337 18.6419C3.42933 20.4667 3.60139 22.9017 2.59363 23.3661C3.47867 23.1659 5.03743 24.559 6.65502 29.6986V29.6986ZM6.65502 29.6986L6.7736 30.0851C6.73435 29.9539 6.69482 29.8251 6.65502 29.6986ZM19.7728 6.24775C19.3837 9.35985 19.0029 15.1947 14.6354 15.6023C16.164 15.4596 17.0525 15.7912 19.4515 12.4198L19.7728 6.24775ZM21.3163 39.3541L22.1027 44.2533L23.5981 42.609L21.3163 39.3541ZM19.204 20.557L20.0991 26.1718L20.9128 20.557L20.0991 17.709L19.204 20.557ZM33.4618 29.6986C35.0793 24.559 36.6381 23.1659 37.5231 23.3661C36.5154 22.9017 36.6874 20.4667 36.8534 18.6419L33.4618 29.6986ZM18.8005 39.3541L16.5187 42.609L18.0141 44.2533L18.8005 39.3541ZM20.3105 6.24775L20.5537 12.4198C22.9526 15.7912 23.9528 15.4596 25.4814 15.6023C21.1139 15.1947 20.6995 9.35985 20.3105 6.24775Z" fill="#584EBE"/>
<path d="M19.8962 42.365C19.9534 44.5508 20.125 48.7324 19.289 49.0376C19.6327 49.1468 20.0612 50.0692 19.855 53.6758C19.855 51.0068 18.5843 49.4986 18.096 49.0376C19.2027 48.1913 19.9102 44.2094 19.8962 42.365Z" fill="#584EBE"/>
<path d="M20.2207 42.365C20.1634 44.5508 19.9918 48.7324 20.8279 49.0376C20.4842 49.1468 20.0556 50.0692 20.2618 53.6758C20.2618 51.0068 21.5326 49.4986 22.0208 49.0376C20.9141 48.1913 20.2067 44.2094 20.2207 42.365Z" fill="#584EBE"/>
<path d="M3.49901 33.3172C3.30371 33.9682 4.50266 34.8904 5.12646 35.2701C4.93654 35.1393 4.60568 34.6956 4.80097 33.9682C4.99627 33.2409 4.61105 32.9056 4.39411 32.829C4.17717 32.7206 3.6943 32.6662 3.49901 33.3172Z" fill="#584EBE"/>
<path d="M12.3688 46.0266C12.7465 47.7781 15.4437 48.0333 17.3325 48.2237C16.5141 47.8746 14.8772 46.7767 14.8772 45.1776C14.8772 43.5784 11.6436 43.3413 10.4158 43.3413C10.2585 43.373 11.991 44.2751 12.3688 46.0266Z" fill="#584EBE"/>
<path d="M2.84805 35.4195C5.64727 35.8101 7.67622 38.5944 8.05591 40.1676C7.40493 38.8115 5.06139 36.8029 3.17354 37.7793C1.28569 38.7558 0.325495 36.6131 0.0813761 35.4195C-0.162742 35.2568 0.0488272 35.0289 2.84805 35.4195Z" fill="#584EBE"/>
<path fill-rule="evenodd" clip-rule="evenodd" d="M17.4198 48.817C15.1835 48.9249 10.4683 48.0981 9.49735 43.9286C8.52624 39.7589 4.45565 38.7905 2.64755 38.8729C7.07309 49.3088 13.9561 49.9376 17.1539 48.9166C17.2434 48.8879 17.3653 48.8376 17.4198 48.817ZM6.75411 41.9579C7.2482 41.9579 7.64921 42.3589 7.64921 42.853C7.64921 43.3471 7.2482 43.7481 6.75411 43.7481C6.26001 43.7481 5.85901 43.3471 5.85901 42.853C5.85901 42.3589 6.26001 41.9579 6.75411 41.9579Z" fill="#584EBE"/>
<path d="M3.90583 32.0306C3.72607 32.0306 3.58034 31.8849 3.58034 31.7051C3.58034 31.5254 3.72607 31.3796 3.90583 31.3796C4.0856 31.3796 4.23132 31.5254 4.23132 31.7051C4.23132 31.8849 4.0856 32.0306 3.90583 32.0306Z" fill="#584EBE"/>
<path d="M30.6649 14.0846C30.6027 14.087 30.5386 14.0888 30.473 14.0899L30.6649 14.0846ZM30.473 14.0899C28.1322 14.1275 23.6374 13.2612 22.952 9.43428C22.2474 5.49991 24.3525 5.35083 25.493 5.76811C24.1246 6.47947 22.8062 8.77874 25.7478 12.047C28.8656 15.5109 29.5834 15.2474 30.473 14.0899Z" fill="#584EBE"/>
<path d="M9.45194 14.0846C9.51411 14.087 9.57823 14.0888 9.64382 14.0899L9.45194 14.0846ZM9.64382 14.0899C11.9846 14.1275 16.4795 13.2612 17.1648 9.43428C17.8695 5.49991 15.7644 5.35083 14.6238 5.76811C15.9922 6.47947 17.3106 8.77874 14.369 12.047C11.2513 15.5109 10.5334 15.2474 9.64382 14.0899Z" fill="#584EBE"/>
<path d="M36.2109 32.0306C36.3906 32.0306 36.5364 31.8849 36.5364 31.7051C36.5364 31.5254 36.3906 31.3796 36.2109 31.3796C36.0311 31.3796 35.8854 31.5254 35.8854 31.7051C35.8854 31.8849 36.0311 32.0306 36.2109 32.0306Z" fill="#584EBE"/>
</svg>
