<svg width="45" height="54" viewBox="0 0 45 54" fill="none" xmlns="http://www.w3.org/2000/svg">
<path fill-rule="evenodd" clip-rule="evenodd" d="M13.7251 6.37779C14.6308 9.09469 13.8939 11.4233 13.7251 11.9805C12.9675 14.4826 12.8274 14.9256 12.4322 15.8594C11.8935 16.9368 11.0317 19.3503 11.8935 20.3846C12.7554 21.419 13.7611 21.6058 14.1561 21.5698C12.4322 23.4015 12.3244 23.7247 12.109 24.048C11.94 24.3016 11.2502 26.588 11.2073 28.5905C11.2065 28.6278 11.2061 28.6651 11.2056 28.7024C11.2056 28.7024 11.8161 27.14 12.2831 26.5475C12.75 25.9549 13.576 25.2976 14.007 25.039C14.438 24.7804 14.6895 24.4285 14.7612 24.2848V26.332C14.7252 26.9424 14.3733 28.3576 13.2528 29.1333C12.9099 29.3706 12.666 29.4382 12.4986 29.5643C13.0373 29.8516 14.1794 30.6418 14.438 31.0727C14.6966 31.5037 14.9767 32.7607 15.0844 33.3354V34.6283C14.7972 34.2691 14.3518 33.5078 13.576 33.3354C12.9347 33.1929 12.421 32.8932 12.2419 32.6922L12.4986 33.1199L12.8461 33.4675C13.0504 33.7175 13.4476 34.1909 13.7251 34.5206C15.1043 36.1583 20.0463 40.0302 22.1292 40.964V47.2132C21.6983 46.3512 20.707 44.5411 20.1898 44.1963C19.5434 43.7653 19.7589 43.9808 18.5737 43.6576C17.3885 43.3343 12.3298 41.7395 10.0204 39.9078C7.97327 38.2843 7.07295 36.3725 6.07545 33.0986C5.06416 29.7798 6.29654 24.5175 6.68033 23.3151C6.78398 22.9906 6.70188 22.4402 9.63104 14.5664C9.66853 14.4654 10.6007 11.6573 11.355 9.61015C11.9583 7.97242 11.3909 7.06025 11.0317 6.80877C10.924 6.73702 10.6007 6.59329 10.1698 6.59329C9.63104 6.59329 8.87682 6.70103 8.66133 8.31721C8.44584 9.93338 9.20006 10.7953 9.20006 10.9031C9.20006 11.0108 7.90712 10.0411 7.58388 9.61015C7.26065 9.17917 6.39869 7.77848 6.93741 5.83907C7.36839 4.28754 8.40447 3.88285 9.05094 3.77511C9.15868 3.77511 9.9157 3.72576 10.3439 3.77511C10.8108 3.82898 11.6597 4.00202 11.8523 4.09834C11.8523 4.09834 13.0787 4.43838 13.7251 6.37779ZM10.1672 25.3732C10.0657 23.6478 11.3948 22.5111 12.109 22.2575C11.4692 22.2863 10.1131 21.7985 9.80623 19.6149C9.78985 21.7959 8.50338 22.8029 7.86208 23.0337C9.44701 22.5934 10.0471 24.368 10.1672 25.3732ZM13.7812 31.5285C13.626 31.1882 12.5527 30.4651 12.0355 30.1461C12.0355 30.2524 12.2294 31.5285 13.1024 32.0603C13.8006 32.4857 14.1046 32.7337 14.1693 32.8046C14.1046 32.5211 13.9363 31.8688 13.7812 31.5285ZM12.8606 26.8974C12.5115 27.3715 12.1029 28.3882 11.9124 29.0086C12.0163 28.9859 13.2155 28.5084 13.5301 27.4629C13.7818 26.6263 13.9529 26.2488 14.007 26.1645C13.7456 26.2938 13.1256 26.5375 12.8606 26.8974ZM19.6421 41.4559C17.4031 40.4741 12.4458 37.6795 10.5266 34.3555C10.7186 35.283 11.5437 37.5795 13.3092 39.345C15.0747 41.1105 18.2666 41.488 19.6421 41.4559Z" fill="#584EBE"/>
<path fill-rule="evenodd" clip-rule="evenodd" d="M30.8172 6.3778C29.9115 9.0947 30.6485 11.4233 30.8172 11.9805C31.5749 14.4826 31.715 14.9256 32.1102 15.8594C32.6489 16.9368 33.5106 19.3503 32.6489 20.3847C31.7869 21.419 30.7812 21.6058 30.3862 21.5699C32.1102 23.4015 32.2179 23.7248 32.4334 24.048C32.6023 24.3016 33.2921 26.588 33.335 28.5905C33.3359 28.6278 33.3363 28.6651 33.3367 28.7024C33.3367 28.7024 32.7262 27.1401 32.2593 26.5475C31.7923 25.9549 30.9663 25.2976 30.5354 25.039C30.1044 24.7804 29.8529 24.4285 29.7811 24.2848V26.332C29.8171 26.9425 30.169 28.3576 31.2896 29.1333C31.6324 29.3706 31.8764 29.4383 32.0438 29.5643C31.5051 29.8516 30.363 30.6418 30.1044 31.0728C29.8458 31.5037 29.5657 32.7607 29.4579 33.3354V34.6283C29.7452 34.2691 30.1906 33.5078 30.9663 33.3354C31.6076 33.193 32.1214 32.8932 32.3004 32.6922L32.0438 33.1199L31.6962 33.4675C31.4919 33.7175 31.0948 34.1909 30.8172 34.5206C29.4381 36.1583 24.496 40.0303 22.4131 40.964V47.2132C22.8441 46.3512 23.8353 44.5411 24.3525 44.1963C24.999 43.7653 24.7835 43.9808 25.9687 43.6576C27.1539 43.3344 32.2125 41.7395 34.5219 39.9079C36.5691 38.2844 37.4694 36.3725 38.4669 33.0986C39.4782 29.7798 38.2458 24.5175 37.862 23.3151C37.7584 22.9906 37.8405 22.4402 34.9113 14.5664C34.8738 14.4654 33.9416 11.6573 33.1874 9.61015C32.584 7.97242 33.1514 7.06025 33.5106 6.80878C33.6184 6.73702 33.9416 6.59329 34.3726 6.59329C34.9113 6.59329 35.6655 6.70103 35.881 8.31721C36.0965 9.93338 35.3423 10.7953 35.3423 10.9031C35.3423 11.0108 36.6352 10.0411 36.9585 9.61015C37.2817 9.17917 38.1437 7.77848 37.6049 5.83907C37.174 4.28754 36.1379 3.88285 35.4914 3.77511C35.3837 3.77511 34.6267 3.72576 34.1985 3.77511C33.7315 3.82898 32.8827 4.00202 32.69 4.09834C32.69 4.09834 31.4637 4.43838 30.8172 6.3778ZM34.3752 25.3733C34.4767 23.6478 33.1475 22.5111 32.4334 22.2575C33.0732 22.2864 34.4293 21.7985 34.7361 19.6149C34.7525 21.7959 36.039 22.8029 36.6803 23.0337C35.0953 22.5934 34.4952 24.368 34.3752 25.3733ZM30.7612 31.5285C30.9163 31.1883 31.9897 30.4651 32.5069 30.1462C32.5069 30.2524 32.3129 31.5285 31.44 32.0603C30.7418 32.4857 30.4377 32.7338 30.3731 32.8047C30.4377 32.5211 30.606 31.8688 30.7612 31.5285ZM31.6818 26.8974C32.0309 27.3715 32.4394 28.3882 32.6299 29.0086C32.5261 28.986 31.3269 28.5084 31.0122 27.4629C30.7605 26.6263 30.5894 26.2488 30.5354 26.1645C30.7968 26.2938 31.4167 26.5375 31.6818 26.8974ZM24.9003 41.4559C27.1392 40.4742 32.0966 37.6795 34.0157 34.3555C33.8237 35.283 32.9986 37.5795 31.2331 39.345C29.4676 41.1105 26.2758 41.488 24.9003 41.4559Z" fill="#584EBE"/>
<path d="M27.4273 8.04132L28.9325 8.14002L29.0271 36.1369L27.6264 37.3221L27.4273 8.04132ZM24.2863 7.83531V39.8003L25.7947 38.7228L25.5999 7.74395L24.2863 7.83531ZM25.5887 7.92065L25.5999 6.0907L24.2863 6.82531V7.83531L25.5887 7.92065ZM28.9325 8.14002L27.4273 8.04132L27.4073 5.09751L28.9194 4.24438L28.9325 8.14002ZM25.7947 38.7228L27.6264 37.3221L25.7947 38.7228ZM25.7947 38.7228L27.6264 37.3221L25.7947 38.7228Z" fill="#584EBE"/>
<path d="M28.1651 1.83167L29.0271 3.12461L24.3941 5.71049L25.9025 3.77108L26.2688 3.29528L27.7342 0L28.1651 1.83167Z" fill="#584EBE"/>
<path fill-rule="evenodd" clip-rule="evenodd" d="M30.5116 8.24328L23.7473 7.7998L22.3466 10.8167L23.7473 9.73922L30.5784 9.26449C30.5616 8.92897 30.5116 8.57923 30.5116 8.24328Z" fill="#584EBE"/>
<path d="M17.1152 8.04132L15.61 8.14001L15.5154 36.1369L16.9161 37.3221L17.1152 8.04132ZM20.2562 7.83531V39.8002L18.7477 38.7228L18.9425 7.74394L20.2562 7.83531ZM18.9537 7.92064L18.9425 6.0907L20.2562 6.82531V7.83531L18.9537 7.92064ZM15.61 8.14001L17.1152 8.04132L17.1352 5.09751L15.6231 4.24438L15.61 8.14001ZM18.7477 38.7228L16.9161 37.3221L18.7477 38.7228ZM18.7477 38.7228L16.9161 37.3221L18.7477 38.7228Z" fill="#584EBE"/>
<path d="M16.3773 1.83167L15.5154 3.12461L20.1484 5.71049L18.64 3.77108L18.2737 3.29527L16.8083 0L16.3773 1.83167Z" fill="#584EBE"/>
<path d="M22.2826 53.568C21.0276 52.2119 17.3871 48.4891 17.1104 45.0522L15.3255 47.9183L8.51196 45.308L18.4676 51.5628L22.2826 53.568Z" fill="#584EBE"/>
<path d="M10.3436 44.11L7.32678 42.6016L8.72747 44.8642L14.7612 47.2346L12.8218 45.2952L10.3436 44.11Z" fill="#584EBE"/>
<path d="M2.78478 37.936L3.6295 39.9982L12.0674 44.4332L5.75531 38.5337L4.82698 37.1716L0 34.3052L2.78478 37.936Z" fill="#584EBE"/>
<path d="M1.18532 32.5812L0.323364 33.8741L4.9564 36.46L3.44797 34.5206L3.08164 34.0448L1.6163 30.7495L1.18532 32.5812Z" fill="#584EBE"/>
<path d="M22.4109 53.6757C23.6659 52.3196 27.3064 48.5968 27.5831 45.1599L29.368 48.0259L36.1816 45.4157L26.2259 51.6705L22.4109 53.6757Z" fill="#584EBE"/>
<path d="M34.35 44.2177L37.3669 42.7092L35.9662 44.9719L29.9325 47.3423L31.8719 45.4029L34.35 44.2177Z" fill="#584EBE"/>
<path d="M41.9088 38.0439L41.064 40.1061L32.6261 44.5411L38.9382 38.6416L39.8666 37.2795L44.6935 34.4131L41.9088 38.0439Z" fill="#584EBE"/>
<path d="M43.5084 32.6893L44.3703 33.9823L39.7373 36.5682L41.2457 34.6287L41.6121 34.1529L43.0774 30.8577L43.5084 32.6893Z" fill="#584EBE"/>
<path d="M22.2773 49.6212L21.5782 47.757L20.5296 46.9415L19.8306 45.7764L20.8792 48.6891L22.2773 49.6212ZM22.2773 49.6212L20.8792 49.9707L20.5296 51.0193L21.8112 50.7863L22.2773 49.6212Z" fill="#584EBE"/>
<path d="M22.2651 49.6212L22.9642 47.757L24.0128 46.9415L24.7119 45.7764L23.6633 48.6891L22.2651 49.6212ZM22.2651 49.6212L23.6633 49.9707L24.0128 51.0193L22.7312 50.7863L22.2651 49.6212Z" fill="#584EBE"/>
<path fill-rule="evenodd" clip-rule="evenodd" d="M14.0305 8.24328L20.7948 7.7998L22.1955 10.8167L20.7948 9.73922L13.9637 9.26449C13.9806 8.92897 14.0305 8.57923 14.0305 8.24328Z" fill="#584EBE"/>
</svg>
