<svg width="469" height="138" viewBox="0 0 469 138" fill="none" xmlns="http://www.w3.org/2000/svg">
<path fill-rule="evenodd" clip-rule="evenodd" d="M289.106 79.2439V137.499C289.105 137.652 289.104 137.804 289.104 137.957C289.104 101.146 261.473 71.0293 227.575 70.7812H281.302C284.673 72.6038 287.425 75.5883 289.105 79.2441L289.106 79.2439Z" fill="white"/>
<path fill-rule="evenodd" clip-rule="evenodd" d="M249.71 123.581C250.664 121.511 252.28 120.601 252.663 120.379C254.381 119.382 254.688 119.209 255.389 118.901C256.24 118.593 257.967 117.707 258.058 116.623C258.148 115.539 257.717 114.858 257.49 114.652C259.364 114.591 259.591 114.468 259.875 114.406C260.098 114.358 261.666 113.445 262.744 112.325C262.764 112.305 262.784 112.284 262.804 112.263C262.804 112.263 261.659 112.806 261.1 112.878C260.542 112.95 259.76 112.854 259.397 112.755C259.033 112.657 258.715 112.714 258.602 112.755L259.681 111.585C260.021 111.257 260.953 110.649 261.952 110.846C262.258 110.907 262.422 111.007 262.577 111.031C262.444 110.559 262.259 109.455 262.35 109.061C262.441 108.666 262.955 107.788 263.202 107.398L263.883 106.659C263.845 107.029 263.679 107.718 263.997 108.26C264.259 108.708 264.372 109.173 264.361 109.39L264.451 108.999V108.602C264.475 108.342 264.515 107.845 264.543 107.498C264.679 105.773 264.115 100.736 263.509 99.0123L266.803 95.4409C266.576 96.1798 266.144 97.7808 266.235 98.2734C266.349 98.8891 266.349 98.6428 266.803 99.5049C267.257 100.367 269.083 104.169 269.335 106.536C269.558 108.634 269.025 110.241 267.825 112.682C266.609 115.157 263.186 117.46 262.35 117.927C262.124 118.054 261.877 118.415 256.183 121.241C256.11 121.277 254.139 122.349 252.663 123.088C251.482 123.68 251.3 124.525 251.357 124.874C251.375 124.977 251.47 125.244 251.697 125.49C251.981 125.798 252.435 126.167 253.401 125.367C254.366 124.566 254.423 123.643 254.48 123.581C254.537 123.519 254.707 124.812 254.65 125.243C254.593 125.674 254.31 126.968 253.003 127.768C251.958 128.409 251.199 128.048 250.802 127.74C250.745 127.678 250.32 127.274 250.12 127.001C249.903 126.703 249.546 126.119 249.496 125.954C249.496 125.954 249.028 125.059 249.71 123.581ZM261.597 114.759C260.741 115.803 259.441 115.693 258.931 115.43C259.283 115.779 259.741 116.833 258.752 118.256C259.91 117.019 261.119 117.178 261.578 117.413C260.511 116.759 261.13 115.402 261.597 114.759ZM262.936 109.175C262.839 109.459 263.023 110.485 263.128 110.963C263.184 110.902 263.754 110.062 263.574 109.26C263.43 108.617 263.401 108.302 263.404 108.224C263.289 108.424 263.034 108.892 262.936 109.175ZM260.98 112.348C261.414 112.277 262.166 111.929 262.593 111.684C262.526 111.637 261.642 111.225 260.926 111.642C260.352 111.977 260.063 112.095 259.99 112.112C260.196 112.187 260.651 112.403 260.98 112.348L260.98 112.348ZM265.079 100.153C265.742 101.993 266.882 106.423 266.142 109.42C266.529 108.78 267.305 106.996 267.305 104.978C267.305 102.96 265.821 100.92 265.079 100.153Z" fill="white"/>
<path fill-rule="evenodd" clip-rule="evenodd" d="M240.701 113.813C242.61 112.778 243.449 111.026 243.654 110.611C244.573 108.749 244.733 108.415 245.017 107.656C245.301 106.732 246.119 104.86 247.118 104.762C248.118 104.663 248.746 105.131 248.935 105.377C248.992 103.345 249.106 103.099 249.162 102.791C249.207 102.55 250.049 100.849 251.081 99.6799C251.101 99.6581 251.12 99.6364 251.139 99.615C251.139 99.615 250.638 100.857 250.572 101.462C250.505 102.068 250.594 102.915 250.685 103.31C250.776 103.704 250.723 104.048 250.685 104.172L251.764 103.002C252.067 102.632 252.627 101.622 252.445 100.539C252.39 100.207 252.297 100.029 252.275 99.8614C252.71 100.005 253.729 100.206 254.092 100.108C254.456 100.009 255.266 99.4508 255.626 99.1841L256.307 98.4452C255.966 98.4863 255.33 98.6668 254.831 98.322C254.417 98.037 253.989 97.9147 253.788 97.9272L254.149 97.8294H254.516C254.755 97.8033 255.214 97.7598 255.534 97.73C257.124 97.5822 261.769 98.1938 263.359 98.8505L266.653 95.2791C265.972 95.5254 264.495 95.9935 264.041 95.8949C263.473 95.7717 263.7 95.7717 262.905 95.2791C262.11 94.7865 258.603 92.8071 256.421 92.5339C254.486 92.2918 253.004 92.8698 250.753 94.1708C248.47 95.4895 246.346 99.2012 245.915 100.108C245.798 100.353 245.465 100.62 242.859 106.794C242.826 106.873 241.837 109.011 241.155 110.612C240.61 111.892 239.83 112.089 239.508 112.028C239.414 112.007 239.168 111.905 238.941 111.658C238.657 111.35 238.316 110.858 239.054 109.811C239.792 108.764 240.644 108.703 240.701 108.641C240.758 108.58 239.565 108.395 239.168 108.456C238.77 108.518 237.578 108.826 236.84 110.242C236.249 111.375 236.582 112.199 236.866 112.63C236.922 112.691 237.295 113.152 237.547 113.368C237.822 113.604 238.36 113.991 238.512 114.046C238.512 114.046 239.338 114.552 240.701 113.813ZM248.837 100.924C247.875 101.852 247.976 103.262 248.219 103.815C247.897 103.433 246.925 102.936 245.612 104.009C246.753 102.753 246.606 101.442 246.39 100.944C246.993 102.101 248.244 101.43 248.837 100.924ZM253.986 99.4719C253.725 99.5776 252.778 99.3775 252.338 99.2642C252.394 99.2034 253.169 98.585 253.909 98.7801C254.501 98.936 254.792 98.9679 254.863 98.9644C254.68 99.0894 254.248 99.3662 253.986 99.4719ZM251.06 101.592C251.126 101.122 251.447 100.307 251.673 99.8441C251.716 99.9163 252.097 100.875 251.711 101.652C251.403 102.274 251.294 102.587 251.278 102.666C251.209 102.443 251.01 101.949 251.06 101.593L251.06 101.592ZM262.308 97.1478C260.61 96.4294 256.524 95.1933 253.761 95.9962C254.351 95.5758 255.996 94.735 257.857 94.735C259.719 94.735 261.6 96.3434 262.308 97.1478Z" fill="white"/>
<path d="M243.365 114.8L242.623 113.883L257.329 97.8291L258.692 97.9523L243.365 114.8ZM244.911 116.713L261.759 98.4448L260.396 98.1986L244.171 116.014L244.911 116.713ZM244.27 115.919L243.3 116.959L244.379 117.29L244.911 116.713L244.27 115.919ZM242.623 113.883L243.365 114.8L241.824 116.494L240.577 116.117L242.623 113.883ZM260.396 98.1986L258.692 97.9523ZM260.396 98.1986L258.692 97.9523Z" fill="white"/>
<path d="M239.703 117.927L239.93 116.696L243.735 117.866L241.918 118.112L241.474 118.174L238.965 119.22L239.703 117.927Z" fill="white"/>
<path fill-rule="evenodd" clip-rule="evenodd" d="M241.845 112.921L245.177 117.041L247.505 116.117L246.199 115.932L242.348 112.3C242.18 112.501 242.023 112.73 241.845 112.921Z" fill="white"/>
<path d="M248.8 120.694L249.645 121.497L264.451 105.551L264.337 104.074L248.8 120.694ZM247.036 119.016L263.883 100.749L264.11 102.226L247.68 119.819L247.036 119.016ZM247.767 119.712L246.809 120.764L246.503 119.594L247.036 119.016L247.767 119.712ZM249.645 121.497L248.8 120.694L247.238 122.365L247.585 123.716L249.645 121.497ZM264.11 102.226L264.337 104.074ZM264.11 102.226L264.337 104.074Z" fill="white"/>
<path d="M245.916 124.664L247.051 124.418L245.972 120.292L245.745 122.262L245.688 122.744L244.723 125.464L245.916 124.664Z" fill="white"/>
<path d="M270.071 91.7223C270.018 93.2146 269.974 97.4226 268.309 99.5449L270.76 98.927L272.976 104.313L271.025 95.0484L270.071 91.7223Z" fill="white"/>
<path d="M271.379 103.95L272.174 106.537L272.628 104.443L270.697 99.6401V101.857L271.379 103.951L271.379 103.95Z" fill="white"/>
<path d="M272.109 111.798L272.751 110.137L270.641 102.78L270.858 109.759L270.63 111.068L271.663 115.465L272.109 111.799L272.109 111.798Z" fill="white"/>
<path d="M270.13 115.773L271.265 115.526L270.186 111.401L269.959 113.371L269.901 113.853L268.937 116.573L270.129 115.773L270.13 115.773Z" fill="white"/>
<path d="M270.06 91.5869C268.684 91.6447 264.803 91.6917 262.846 93.4977L263.416 90.8397L258.449 88.4375L266.993 90.5525L270.06 91.5869H270.06Z" fill="white"/>
<path d="M258.783 90.169L256.398 89.3071L258.329 88.8145L262.758 90.9081H260.714L258.783 90.1692L258.783 90.169Z" fill="white"/>
<path d="M251.545 89.3774L253.077 88.6816L259.862 90.9693L253.426 90.7335L252.218 90.9814L248.164 89.861L251.545 89.3774Z" fill="white"/>
<path d="M247.88 91.5239L248.107 90.2925L251.911 91.4624L250.094 91.7087L249.65 91.7712L247.141 92.8171L247.879 91.5241L247.88 91.5239Z" fill="white"/>
<path d="M267.994 93.9806L267.38 95.4454L267.503 96.5107L267.257 97.5761L268.24 95.3122L267.994 93.9806ZM267.994 93.9806L268.915 94.5799L269.652 94.1804L268.854 93.5811L267.994 93.9806Z" fill="white"/>
<path d="M268 93.9878L266.649 94.6536L265.667 94.5204L264.684 94.7868L266.772 93.7214L268 93.9878ZM268 93.9878L267.448 92.9889L267.816 92.1899L268.369 93.0556L268 93.9878Z" fill="white"/>
<path fill-rule="evenodd" clip-rule="evenodd" d="M250.532 122.34L246.733 118.728L247.585 116.204L247.755 117.62L251.105 121.795C250.92 121.977 250.709 122.148 250.532 122.34Z" fill="white"/>
<path fill-rule="evenodd" clip-rule="evenodd" d="M300.508 71.0776H354.234C320.477 71.3247 292.932 101.193 292.704 137.796V79.539C294.385 75.884 297.137 72.8999 300.508 71.0776Z" fill="white"/>
<path d="M344.498 106.234L347.084 104.11C347.245 104.456 347.728 104.886 348.376 103.843C348.845 104.345 348.728 105.525 344.498 106.234Z" fill="white"/>
<path d="M335.753 115.38L338.112 112.867C338.839 113.192 341.895 112.605 342.629 112.603C341.857 112.566 340.206 112.971 339.776 114.884C339.62 114.096 338.597 113.092 335.753 115.38Z" fill="white"/>
<path d="M333.556 117.762L331.238 120.32C331.538 121.108 330.997 124.422 330.995 125.218C330.961 124.381 331.335 122.591 333.098 122.125C332.371 121.956 331.446 120.846 333.556 117.762Z" fill="white"/>
<path d="M333.639 115.47C333.639 115.47 333.844 116.549 333.93 116.959L335.199 117.162L335.013 115.785C334.634 115.692 333.639 115.47 333.639 115.47Z" fill="white"/>
<path fill-rule="evenodd" clip-rule="evenodd" d="M330.868 111.985C330.803 111.792 330.752 111.605 330.714 111.428L331.483 110.595L332.018 111.175L332.882 110.238L334.003 111.453L335.894 109.402L336.237 109.775L337.102 108.837L336.237 107.9L335.373 108.837L335.643 109.13L334.002 110.91L332.867 109.679L331.969 110.653L331.483 110.126L330.648 111.031C330.619 110.79 330.616 110.58 330.632 110.416C330.44 110.402 330.23 110.368 330.012 110.315L331.163 109.067L330.731 108.598L332.023 107.197L332.779 108.017L334.616 106.025L333.698 105.03L334.941 103.682L335.265 104.033L336.129 103.096L335.265 102.159L334.4 103.096L334.67 103.389L333.212 104.971L334.184 106.025L332.779 107.548L332.023 106.728L330.269 108.63L330.701 109.099L329.671 110.216C329.428 110.136 329.184 110.034 328.955 109.911L321.661 102.002C320.494 101.487 318.546 97.1399 317.717 95.031C317.242 95.359 315.106 94.66 314.097 94.2695L319.014 93.8594C318.625 96.0621 323.75 102.667 326.362 105.693L330.036 105.811C335.006 99.3898 334.037 97.3708 333.335 96.7263L335.334 93.9728L337.808 96.0317C339.85 98.5657 339.398 100.83 338.86 101.704C340.063 100.492 342.935 101.089 344.811 101.923L345.081 102.151L346.604 103.497L344.195 105.572C344.303 105.26 343.838 105.139 341.115 107.154C338.392 109.169 337.546 110.634 337.06 111.551L337.222 112.547L334.953 115.008L333.378 114.706L330.868 111.985L330.868 111.985Z" fill="white"/>
<path fill-rule="evenodd" clip-rule="evenodd" d="M344.427 106.168C348.656 105.459 348.774 104.279 348.305 103.777C347.657 104.82 347.174 104.39 347.013 104.044L344.427 106.168Z" fill="white"/>
<path fill-rule="evenodd" clip-rule="evenodd" d="M345.646 101.018L340.815 96.9345L338.643 95.127C340.685 97.6609 340.444 99.6966 339.906 100.571C341.109 99.3584 343.77 100.184 345.646 101.018Z" fill="white"/>
<path fill-rule="evenodd" clip-rule="evenodd" d="M330.425 112.465L332.936 115.187L333.214 116.894L330.944 119.355L330.026 119.179C329.18 119.706 327.829 120.624 325.97 123.576C324.112 126.529 324.224 127.033 324.512 126.916L322.598 129.528L321.357 127.877L321.146 127.584C320.377 125.55 319.826 122.436 320.945 121.132C320.138 121.715 318.05 122.204 315.713 119.991L313.814 117.308L316.354 115.14C316.948 115.902 318.81 116.953 324.732 111.563L324.623 107.579C321.832 104.748 315.741 99.1902 313.71 99.6119L314.088 94.2808C314.448 95.3743 315.093 97.6903 314.79 98.2059C316.735 99.1041 320.744 101.217 321.22 102.482L328.513 110.391C328.627 110.639 328.721 110.904 328.795 111.167L327.764 112.284L327.332 111.815L325.578 113.718L326.334 114.538L324.929 116.061L323.957 115.007L322.498 116.588L322.228 116.295L321.364 117.233L322.228 118.17L323.093 117.233L322.769 116.881L324.011 115.534L324.93 116.53L326.767 114.538L326.01 113.718L327.302 112.317L327.734 112.785L328.885 111.537C328.935 111.773 328.966 112.002 328.979 112.21C329.13 112.192 329.324 112.195 329.547 112.227L328.712 113.132L329.198 113.659L328.3 114.633L329.434 115.864L327.793 117.643L327.523 117.35L326.658 118.287L327.523 119.225L328.387 118.287L328.044 117.915L329.935 115.865L328.814 114.649L329.679 113.712L329.144 113.132L329.912 112.299C330.075 112.34 330.248 112.395 330.426 112.465L330.425 112.465Z" fill="white"/>
<path fill-rule="evenodd" clip-rule="evenodd" d="M325.06 127.167C324.407 131.754 323.318 131.881 322.856 131.372C323.817 130.67 323.42 130.146 323.102 129.971L325.06 127.167Z" fill="white"/>
<path fill-rule="evenodd" clip-rule="evenodd" d="M320.311 128.489L316.545 123.251L314.878 120.896C317.215 123.109 319.092 122.848 319.899 122.265C318.78 123.57 319.542 126.455 320.311 128.489Z" fill="white"/>
<path d="M317.701 95.6616C317.881 96.4037 318.932 98.7314 319.754 99.9969C318.997 99.6454 317.376 96.7162 317.701 95.6616Z" fill="white"/>
<path d="M315.309 98.1372C315.993 98.3325 318.14 99.4729 319.307 100.363C318.983 99.5432 316.282 97.7857 315.309 98.1372Z" fill="white"/>
<path d="M317.303 95.5073C317.181 95.4724 316.543 95.7483 315.266 95.1377C315.573 95.6641 316.48 96.0667 317.303 95.5073Z" fill="white"/>
<path d="M315.249 97.7336C315.217 97.602 315.472 96.9104 314.908 95.5254C315.394 95.8582 315.765 96.8415 315.249 97.7336Z" fill="white"/>
<path d="M313.85 101.712C313.976 103.528 313.417 108.156 310.176 112.14C311.148 110.539 313.245 106.211 313.85 101.712Z" fill="white"/>
<path d="M312.337 100.423L312.229 101.477C314.563 100.352 312.265 104.914 310.824 107.336L307.961 112.901L310.176 106.398C313.677 101.852 312.175 101.965 310.986 102.59L309.852 103.118L311.256 92.2212C311.851 93.5687 311.575 99.4918 312.337 100.423L312.337 100.423Z" fill="white"/>
<path d="M320.951 94.012C322.626 94.1487 326.894 93.5434 330.568 90.0283C329.091 91.0828 325.1 93.3559 320.951 94.012Z" fill="white"/>
<path d="M319.762 92.3713L320.735 92.2541C319.697 94.785 323.904 92.2932 326.137 90.7309L331.27 87.626L325.273 90.0279C321.08 93.8241 321.185 92.1954 321.761 90.9066L322.248 89.6763L312.198 91.1995C313.441 91.844 318.903 91.5448 319.762 92.3711L319.762 92.3713Z" fill="white"/>
<path d="M320.999 94.8971C321.518 95.5532 323.809 95.3266 324.889 95.1314C322.555 97.6623 323.7 100.56 324.565 101.693C323.43 100.814 320.351 94.077 320.999 94.8972L320.999 94.8971Z" fill="white"/>
<path d="M314.666 101.764C315.271 102.326 315.062 104.81 314.882 105.982C317.216 103.451 319.889 104.693 320.933 105.631C320.123 104.4 313.91 101.061 314.666 101.764L314.666 101.764Z" fill="white"/>
<path d="M317.541 98.0093C317.541 98.0093 316.546 97.7873 316.167 97.6941L315.981 96.3174L317.25 96.5198C317.336 96.9301 317.541 98.0093 317.541 98.0093Z" fill="white"/>
<path fill-rule="evenodd" clip-rule="evenodd" d="M300.509 67.1756H354.234C354.375 67.1746 354.515 67.174 354.656 67.174C320.567 67.174 292.706 36.9638 292.706 0C292.706 0.152481 292.705 0.304968 292.704 0.457304V58.7125C294.385 62.3686 297.137 65.3532 300.509 67.1756Z" fill="white"/>
<path d="M342.784 16.7C342.306 16.408 341.367 17.2546 340.957 17.7145C341.094 17.5776 341.502 17.3802 342.041 17.6869C342.579 17.9937 342.911 17.7291 343.01 17.5584C343.134 17.394 343.262 16.9921 342.784 16.7Z" fill="white"/>
<path d="M339.254 12.873C339.524 13.3914 338.743 14.4098 338.319 14.854C338.445 14.7058 338.627 14.2631 338.344 13.6794C338.061 13.0956 338.305 12.7351 338.462 12.628C338.614 12.4935 338.985 12.3544 339.254 12.8728L339.254 12.873Z" fill="white"/>
<path d="M314.423 23.1219C313.94 23.4041 314.098 24.7173 314.237 25.3386C314.203 25.1399 314.268 24.6605 314.795 24.331C315.321 24.0017 315.293 23.5555 315.213 23.3739C315.151 23.1725 314.906 22.8399 314.423 23.1219Z" fill="white"/>
<path d="M312.231 36.4812C311.446 37.7994 312.841 39.6272 313.81 40.9145C313.542 40.1917 313.235 38.4986 314.148 37.5085C315.061 36.5185 313.35 34.3697 312.649 33.6096C312.541 33.5318 313.015 35.163 312.231 36.4812Z" fill="white"/>
<path d="M312.851 24.0202C314.226 25.995 313.795 28.9748 313.113 30.1839C313.516 28.9413 313.325 26.2469 311.689 25.6827C310.054 25.1185 310.729 23.1974 311.271 22.3073C311.225 22.0554 311.476 22.0454 312.851 24.0202Z" fill="white"/>
<path fill-rule="evenodd" clip-rule="evenodd" d="M313.521 41.3361C312.183 40.0184 309.963 36.5875 311.789 33.405C313.615 30.2223 311.844 27.1027 310.764 26.0342C307.333 35.2349 310.904 39.8855 313.312 41.2332C313.38 41.2708 313.478 41.3152 313.521 41.3361ZM311.348 30.4865C311.63 30.7923 311.63 31.289 311.348 31.5948C311.066 31.9006 310.608 31.9006 310.326 31.5948C310.044 31.289 310.044 30.7923 310.326 30.4865C310.608 30.1806 311.066 30.1806 311.348 30.4865Z" fill="white"/>
<path fill-rule="evenodd" clip-rule="evenodd" d="M345.553 32.5201C345.858 32.3372 346.15 32.1451 346.426 31.947C346.156 32.1139 345.862 32.3062 345.553 32.5201ZM324.665 9.87057C323.016 12.671 319.984 16.5751 317.76 15.1711C318.906 15.9772 319.85 18.4457 316.877 23.1813C315.044 26.2768 314.368 29.1258 314.368 29.1258L313.439 33.5591L317.016 33.4079L322.081 32.9546L315.53 36.4307C315.406 37.2032 315.269 39.0503 315.716 40.2594L319.566 38.049L317.527 42.2241C318.643 42.7077 320.346 42.5598 321.058 42.4257L324.264 35.3224L323.846 40.8136L323.707 44.6927L327.795 43.6851C327.795 43.6851 330.423 42.9519 333.278 40.9647C337.645 37.7406 339.921 38.7648 340.665 40.0076C339.37 37.5958 342.97 34.3079 345.553 32.5201C342.691 34.235 338.677 35.132 336.158 32.4005C336.604 34.1738 336.453 35.9775 336.065 36.4308C334.873 37.388 333.575 38.4459 331.977 38.6475C329.979 38.8994 330.165 38.7986 329.05 38.4963C328.629 38.3823 327.238 37.4384 327.517 35.121C328.399 30.0327 331.754 26.6374 334.393 26.3552C337.032 26.073 338.419 27.1278 338.992 28.8238C339.07 29.0085 339.188 29.2167 339.039 28.5718C338.89 27.9271 338.079 26.1201 337.692 25.2973C335.573 22.2745 339.581 17.1361 341.641 14.466C342.178 13.7664 342.901 12.7468 342.901 12.7468C342.901 12.7468 341.987 13.5032 341.316 14.1135C338.853 16.3468 334.114 20.6928 331.327 18.3956C330.568 17.9757 328.901 17.0958 328.307 16.9346C327.712 16.7734 327.904 16.9011 328.074 16.985C329.638 17.6064 330.611 19.1111 330.351 21.9725C330.091 24.8339 326.959 28.4712 322.267 29.4285C320.13 29.7307 319.259 28.222 319.154 27.766C318.875 26.5569 318.782 26.7585 319.014 24.5922C319.2 22.8592 320.176 21.452 321.059 20.159C321.477 19.7393 323.14 19.5746 324.776 20.0582C322.256 17.3266 323.084 12.9742 324.665 9.87101L324.665 9.87057ZM324.665 9.87057C324.862 9.53569 325.039 9.21664 325.193 8.92432C325.011 9.22318 324.834 9.5399 324.665 9.87057ZM324.3 32.9162L324.336 32.2115L324.858 32.1391L324.854 31.8869L324.677 31.701L324.504 31.7672L324.326 31.5812L324.498 31.389L324.612 31.2607L324.671 31.3227L324.789 31.4467L324.791 31.5728L324.969 31.7588L325.085 31.7566L325.199 31.6284C325.582 31.2854 326.346 30.5488 326.343 30.347L326.28 30.0329C326.046 29.953 325.555 29.8188 325.464 29.9214C325.373 30.0239 325.564 30.1088 325.641 30.1074L324.887 30.1839L325.285 29.6094C325.286 29.6514 325.299 29.7478 325.346 29.7975C325.405 29.8595 325.744 29.2229 326.627 29.9006C326.695 29.9527 326.907 29.9484 327.147 29.8281C327.036 30.0886 327.032 30.319 327.081 30.3926C327.706 31.3494 327.119 31.7173 327.176 31.7815C327.221 31.8327 327.31 31.847 327.349 31.8477L326.819 32.2796L326.89 31.4611C326.888 31.5452 326.967 31.7526 327.061 31.6534C327.156 31.5542 327.032 31.0224 326.959 30.7689L326.669 30.7006C326.483 30.6973 325.803 31.5257 325.487 31.9405L325.369 32.0644L325.367 32.1904L325.538 32.3827L325.655 32.3849L325.769 32.513L325.826 32.5771L325.708 32.701L325.531 32.887L325.359 32.6948L325.42 32.5067L325.249 32.3146L325.016 32.3105L324.949 32.8767L324.299 32.9161L324.3 32.9162ZM325.441 37.4497L325.758 42.2987L329.74 41.6105L325.066 43.0496L325.441 37.4498L325.441 37.4497ZM320.119 31.6789L314.954 32.0857L316.281 27.0177L315.647 31.3349L320.119 31.6791L320.119 31.6789ZM334.652 22.6483C334.389 22.675 333.788 22.8791 333.324 23.0805C333.521 22.5821 333.695 22.073 333.722 21.6406C333.974 21.6698 334.392 21.6194 334.857 21.418C334.655 22.0311 334.625 22.2744 334.652 22.6483ZM333.597 39.4311L341.846 34.6856C340.71 35.7126 339.221 37.1136 339.531 38.025C339.14 37.3533 337.455 37.2506 333.597 39.4311ZM333.597 39.4311L333.308 39.5969C333.406 39.54 333.502 39.4846 333.597 39.4311ZM339.497 16.7915C337.942 18.959 334.828 22.8072 337.089 25.7634C336.297 24.7287 335.601 24.3838 336.156 20.8114L339.497 16.7915ZM319.713 36.3321L316.467 38.8784L316.552 36.9346L319.713 36.3321ZM331.651 26.0025L327.934 28.9244L330.676 24.9445L332.766 23.685L331.651 26.0025ZM318.291 22.8351C320.302 18.6517 320.208 16.8241 319.588 16.4002C320.428 16.7367 321.72 15.1226 322.668 13.8901L318.291 22.8351ZM321.149 37.8897L320.593 41.3175L318.801 41.4097L321.149 37.8897ZM339.189 16.4586L335.527 20.1292C332.232 20.7313 331.85 19.9069 330.896 19.0487C333.622 21.5003 337.19 18.1445 339.189 16.4586Z" fill="white"/>
<path d="M318.805 39.0752C317.524 40.3929 315.038 42.8756 315.342 43.5821C315.083 43.4369 314.312 43.7427 312.37 46.1032C313.894 44.4508 315.481 44.3038 316.023 44.3207C315.874 43.1116 317.744 40.2083 318.805 39.0752Z" fill="white"/>
<path d="M318.619 38.8745C317.404 40.2632 315.114 42.9583 314.463 42.6296C314.597 42.91 314.315 43.7464 312.138 45.8516C313.662 44.1992 313.797 42.4787 313.782 41.891C314.897 42.0522 317.574 40.0251 318.619 38.8745Z" fill="white"/>
<path d="M333.332 43.6254C333.072 44.1494 331.861 43.978 331.288 43.827C331.471 43.8636 331.913 43.7938 332.217 43.2225C332.521 42.6513 332.932 42.6822 333.1 42.7691C333.286 42.8363 333.592 43.1016 333.332 43.6254Z" fill="white"/>
<path d="M321.012 46.0024C319.796 46.853 318.11 45.3411 316.923 44.2896C317.59 44.5802 319.151 44.9139 320.064 43.9238C320.977 42.9338 322.959 44.7889 323.66 45.549C323.732 45.666 322.227 45.152 321.012 46.0024Z" fill="white"/>
<path d="M332.504 45.3301C330.682 43.8388 327.934 44.3066 326.819 45.0455C327.965 44.609 330.45 44.8163 330.971 46.5896C331.491 48.3629 333.263 47.6308 334.083 47.043C334.316 47.0934 334.325 46.8214 332.504 45.3301Z" fill="white"/>
<path fill-rule="evenodd" clip-rule="evenodd" d="M316.535 44.603C317.75 46.0544 320.914 48.4617 323.849 46.4815C326.784 44.5012 329.661 46.4218 330.647 47.5922C322.161 51.3132 317.872 47.4412 316.63 44.8294C316.595 44.7562 316.554 44.6496 316.535 44.603ZM326.541 46.9597C326.259 46.6538 325.801 46.6538 325.519 46.9597C325.236 47.2655 325.236 47.7622 325.519 48.068C325.801 48.3738 326.259 48.3738 326.541 48.068C326.823 47.7622 326.823 47.2655 326.541 46.9597Z" fill="white"/>
<path fill-rule="evenodd" clip-rule="evenodd" d="M334.206 42.1738C334.309 42.285 334.309 42.4655 334.206 42.5768C334.104 42.688 333.937 42.688 333.835 42.5768C333.732 42.4655 333.732 42.285 333.835 42.1738C333.937 42.0625 334.104 42.0625 334.206 42.1738Z" fill="white"/>
<path d="M328.803 14.9004C328.837 14.9404 328.872 14.9812 328.909 15.0226ZM328.909 15.0226C330.224 16.495 333.285 18.7415 335.862 16.7964C338.51 14.7969 337.394 13.4013 336.504 12.9536C336.879 14.2411 336.319 16.4809 332.774 16.6831C329.016 16.8975 328.756 16.2899 328.909 15.0226Z" fill="white"/>
<path d="M340.914 28.0334C340.878 27.9963 340.84 27.9579 340.802 27.9179ZM340.802 27.9179C339.444 26.492 337.372 23.1729 339.166 20.3793C341.01 17.5071 342.297 18.7182 342.71 19.6827C341.523 19.2759 339.457 19.8832 339.27 23.7277C339.073 27.8025 339.633 28.0836 340.802 27.9179Z" fill="white"/>
<path fill-rule="evenodd" clip-rule="evenodd" d="M315.762 22.1738C315.659 22.0625 315.493 22.0625 315.39 22.1738C315.287 22.285 315.287 22.4655 315.39 22.5767C315.493 22.688 315.659 22.688 315.762 22.5767C315.864 22.4655 315.864 22.285 315.762 22.1738Z" fill="white"/>
<path fill-rule="evenodd" clip-rule="evenodd" d="M289.105 58.7142V0.45752C288.877 37.2128 261.102 67.1742 227.153 67.1742C227.294 67.1742 227.435 67.1748 227.575 67.1758H281.301C284.672 65.3537 287.425 62.3696 289.105 58.7143L289.105 58.7142Z" fill="white"/>
<path d="M256.944 31.2146C256.494 31.2527 256.201 31.2096 255.463 30.9238C255.705 31.5817 255.766 32.1737 255.731 32.5303C256.251 32.5684 256.866 32.8101 257.465 33.0947C257.222 32.4369 257.013 31.7655 256.944 31.2146Z" fill="white"/>
<path fill-rule="evenodd" clip-rule="evenodd" d="M262.561 38.6208C263.309 35.2658 264.389 28.3009 263.835 26.7136C262.923 24.1017 259.912 15.1793 258.435 10.333C255.669 13.4381 244.906 14.0827 239.87 14.0169C239.931 19.4772 239.337 31.1475 236.473 34.1473C240.942 35.7481 249.601 39.2118 251.58 40.0023C253.049 40.589 259.467 39.432 262.561 38.6208ZM256.625 28.1208L258.799 33.7527L259.356 35.1457L258.071 34.5422L252.877 32.1847C253.079 32.2382 253.328 31.3674 251.519 29.2794C249.59 27.0527 247.009 27.9856 246.059 28.6215C248.534 25.6217 245.958 21.0562 244.421 19.2142C243.875 18.8853 243.569 18.9319 243.172 18.9129C243.208 18.5503 243.195 18.0957 242.904 17.3065C243.642 17.5924 244.041 17.6264 244.385 17.5972C244.417 17.9697 244.351 18.3557 244.663 18.9511C246.362 20.6176 250.573 23.4114 253.339 20.7273C252.753 21.7579 251.892 24.5563 253.946 26.648C255.871 28.6094 256.675 28.3395 256.625 28.121L256.625 28.1208ZM252.877 32.1847C252.869 32.1825 252.861 32.179 252.854 32.1739L252.877 32.1847ZM256.625 28.1208L256.615 28.0951C256.62 28.1035 256.623 28.1121 256.625 28.1208ZM241.084 14.8065C243.066 15.4205 247.369 16.5959 248.728 16.3853C250.087 16.1748 254.027 14.4995 255.827 13.6882L248.061 18.1615L241.084 14.8065ZM240.598 15.3328L243.693 22.8981L239.567 31.3187C240.315 29.3671 241.86 25.0955 242.054 23.6218C242.249 22.1482 241.165 17.4817 240.598 15.3328ZM246.059 34.8053C252.029 38.4367 258.011 38.3359 260.256 37.8314C258.476 38.4454 254.528 39.5681 252.975 39.1471C251.422 38.7261 247.717 36.0771 246.059 34.8053ZM259.042 20.7271C260.215 22.5254 262.658 26.5426 263.046 28.2267C263.435 29.9108 262.399 34.1912 261.833 36.121C262.298 33.6869 262.391 27.2004 259.042 20.7271Z" fill="white"/>
<path fill-rule="evenodd" clip-rule="evenodd" d="M254.795 30.2002C254.989 29.9896 254.613 29.1257 254.37 28.8187L252.55 26.3189L251.701 24.2138L248.364 23.2271L249.274 26.8452L251.216 27.7662L253.521 29.7397C253.804 30.0028 254.601 30.4108 254.795 30.2002ZM250.881 26.3509C250.599 26.4959 250.239 26.4442 250.002 26.1872C249.701 25.8605 249.701 25.3298 250.002 25.0031C250.304 24.6763 250.793 24.6763 251.094 25.0031C251.331 25.2601 251.381 25.6452 251.245 25.9562C251.872 26.5921 253.108 27.8713 253.157 28.0293C253.206 28.1872 253.218 28.4022 253.218 28.4898C253.137 28.4898 252.939 28.4766 252.793 28.424C252.648 28.3715 251.468 27.0308 250.881 26.3509Z" fill="white"/>
<path d="M267.839 40.1341L265.776 35.3975L265.898 31.3188L266.08 27.7007L265.048 35.1345L265.716 37.5685L266.262 38.4237L267.293 40.1999L267.475 42.5023L267.839 40.1341Z" fill="white"/>
<path d="M266.626 35.0026L268.749 39.805L268.021 34.2789L266.929 30.7266L266.626 35.0026Z" fill="white"/>
<path d="M272.814 34.608L270.205 32.8318L267.9 27.9636L263.653 16.9116L267.111 28.8188L269.599 33.4896V37.042L271.479 35.2658L270.205 39.5418L269.235 38.4892L270.205 42.6995L272.814 34.6078L272.814 34.608Z" fill="white"/>
<path d="M263.774 44.5417L259.406 42.305L255.645 42.4366L252.308 42.634L259.164 41.5156L261.408 42.2393L262.197 42.8313L263.835 43.9497L265.958 44.147L263.774 44.5417Z" fill="white"/>
<path d="M259.042 43.2256L263.471 45.528L258.375 44.7386L255.099 43.5545L259.042 43.2256Z" fill="white"/>
<path d="M258.678 49.9361L257.04 47.1073L252.55 44.6075L242.358 40.0024L253.339 43.7522L257.647 46.4493H260.923L259.285 48.4886L263.228 47.1072L262.258 46.0546L266.14 47.1072L258.678 49.9359L258.678 49.9361Z" fill="white"/>
<path d="M255.159 9.93817C252.712 11.1004 246.52 13.2801 241.326 12.7011L245.088 9.54346L242.964 12.2406C245.957 11.8459 252.004 10.7801 252.247 9.67503L255.28 9.93817" fill="white"/>
<path d="M236.109 30.5954C237.181 27.942 239.191 21.2275 238.657 15.5962L235.745 19.6748L238.232 17.3724C237.868 20.6178 236.885 27.1744 235.866 27.4376L236.109 30.7268" fill="white"/>
<path fill-rule="evenodd" clip-rule="evenodd" d="M263.228 39.4761L262.887 41.4745L264.483 42.5475L265.959 42.4364L266.061 40.837L265.071 39.106L263.228 39.476L263.228 39.4761ZM264.502 40.0682L264.624 40.726L265.412 41.5812L265.534 41.9759L265.17 41.8444L264.381 40.9892L263.774 40.8576L263.714 40.0024L264.502 40.0682Z" fill="white"/>
<path fill-rule="evenodd" clip-rule="evenodd" d="M37.1826 49.5983L32.0705 70.3245L40.3088 106.462H26.4535L19.8067 72.8622V106.462H0.125892L0 106.462C2.10199 106.462 5.90781 105.171 6.70026 102.887V35.4048H19.4149L19.8067 35.7177V68.8017L25.9648 40.637L37.1826 49.5983Z" fill="white"/>
<path fill-rule="evenodd" clip-rule="evenodd" d="M26.2681 35.4048H26.6598V35.7177L26.2681 35.4048Z" fill="white"/>
<path fill-rule="evenodd" clip-rule="evenodd" d="M29.7073 40.637L30.8513 35.4048H44.4258L40.925 49.5983L29.7073 40.637Z" fill="white"/>
<path fill-rule="evenodd" clip-rule="evenodd" d="M78.6896 79.7657V47.9918C78.6896 39.1604 74.664 34.7954 66.5194 34.7954H58.0938C49.9492 34.7954 45.9236 39.1604 45.9236 47.9918V53.5911L59.03 64.061V49.5146C59.03 47.7889 59.7789 46.9769 61.3704 46.9769H63.2427C64.8341 46.9769 65.5831 47.7889 65.5831 49.5146V69.296L78.6895 79.7659L78.6896 79.7657Z" fill="white"/>
<path fill-rule="evenodd" clip-rule="evenodd" d="M42.1813 53.591V93.8746C42.1813 102.706 46.2069 107.071 54.3515 107.071H62.777C70.9217 107.071 74.9473 102.706 74.9473 93.8746V79.7656L61.8409 69.2958V92.3518C61.8409 94.0775 61.092 94.8896 59.5005 94.8896H57.6282C56.0367 94.8896 55.2878 94.0775 55.2878 92.3518V64.0607L42.1814 53.5908L42.1813 53.591Z" fill="white"/>
<path fill-rule="evenodd" clip-rule="evenodd" d="M107.333 105.637L107.245 106.462H94.8876L93.6462 94.7036L107.333 105.637Z" fill="white"/>
<path fill-rule="evenodd" clip-rule="evenodd" d="M112.616 46.3783L113.642 35.4048H132.646V62.3795L112.616 46.3783Z" fill="white"/>
<path fill-rule="evenodd" clip-rule="evenodd" d="M128.868 62.3795V106.462H115.949V59.9704L111.076 105.637L97.3887 94.7035L93.6683 59.4627V91.7314L83.1786 83.352L83.1699 39.0088C82.3998 36.7068 78.5705 35.4052 76.4597 35.4052L76.5856 35.4048H95.1008L102.616 41.4083L105.839 78.4453L108.838 46.3783L128.868 62.3795Z" fill="white"/>
<path fill-rule="evenodd" clip-rule="evenodd" d="M98.879 35.4048H105.872L106.394 41.4083L98.879 35.4048Z" fill="white"/>
<path fill-rule="evenodd" clip-rule="evenodd" d="M89.926 91.7312V106.462H79.4408L79.4363 83.3516L89.926 91.7312Z" fill="white"/>
<path fill-rule="evenodd" clip-rule="evenodd" d="M150.789 93.83C150.699 93.8359 150.605 93.839 150.509 93.839H149.292C147.701 93.839 146.952 93.0269 146.952 91.3012V77.7849L134.126 67.4648V92.6208C134.126 97.8942 135.562 101.575 138.452 103.685L150.789 93.83Z" fill="white"/>
<path fill-rule="evenodd" clip-rule="evenodd" d="M140.611 104.939C142.562 106.362 145.174 107.071 148.456 107.071H155.758C163.903 107.071 167.928 102.706 167.928 93.8746V83.1172L140.611 104.939Z" fill="white"/>
<path fill-rule="evenodd" clip-rule="evenodd" d="M167.906 80.015C167.906 74.7364 166.711 72.7605 162.686 69.6136L151.452 60.5792C149.86 59.3611 149.205 58.2445 149.205 56.0112V49.3114C149.205 47.5858 149.954 46.7737 151.545 46.7737H152.575C154.166 46.7737 154.915 47.5858 154.915 49.3114V59.3493L167.741 69.6136V47.9918C167.741 39.1604 163.715 34.7954 155.571 34.7954H148.456C140.311 34.7954 136.286 39.1604 136.286 47.9918V59.2596C136.286 64.3351 137.503 67.2789 141.528 70.4258L152.762 79.4602C154.354 80.6783 155.009 81.7949 155.009 84.0282L154.987 89.4529C154.987 89.8128 154.954 90.1328 154.888 90.4141L167.906 80.0151L167.906 80.015Z" fill="white"/>
<path fill-rule="evenodd" clip-rule="evenodd" d="M388.507 61.6455L375.775 71.8363L375.587 50.1131C375.587 48.3874 374.839 47.5754 373.247 47.5754H371.749C370.158 47.5754 369.409 48.3874 369.409 50.1131V75.7521L356.302 86.222V48.5904C356.302 39.7591 360.328 35.394 368.473 35.394H376.337C384.481 35.394 388.507 39.7591 388.507 48.5904L388.507 61.6455Z" fill="white"/>
<path fill-rule="evenodd" clip-rule="evenodd" d="M360.908 86.1851V94.4363C360.908 103.268 364.934 107.633 373.078 107.633H381.129C389.274 107.633 393.3 103.268 393.3 94.4363L393.113 71.0519C393.113 71.0446 393.109 71.0381 393.103 71.0347C393.097 71.0315 393.09 71.0321 393.084 71.0365L380.38 81.2058V92.9136C380.38 94.6392 379.631 95.4513 378.04 95.4513H376.355C374.763 95.4513 374.015 94.6392 374.015 92.9136V75.715L360.908 86.1849L360.908 86.1851Z" fill="white"/>
<path fill-rule="evenodd" clip-rule="evenodd" d="M393 56.9066V39.6036C392.227 37.304 388.401 36.0039 386.292 36.0039L386.417 36.0034H406.107V46.4367L393 56.9066Z" fill="white"/>
<path fill-rule="evenodd" clip-rule="evenodd" d="M412.192 41.5758V36.0034H419.167L412.192 41.5758Z" fill="white"/>
<path fill-rule="evenodd" clip-rule="evenodd" d="M403.3 106.329C399.494 104.438 397.606 100.484 397.606 94.4364V56.8695L410.712 46.3996V92.9138C410.712 94.6394 411.461 95.4515 413.053 95.4515H414.457C416.048 95.4515 416.797 94.6394 416.797 92.9138V41.5387L423.773 35.9663H429.904V85.0763L403.3 106.329Z" fill="white"/>
<path fill-rule="evenodd" clip-rule="evenodd" d="M433.051 85.9268V95.2869C433.051 104.118 429.025 108.483 420.881 108.483H412.923C410.356 108.483 408.198 108.05 406.447 107.179L433.051 85.9268Z" fill="white"/>
<path fill-rule="evenodd" clip-rule="evenodd" d="M434.491 81.4118V35.9663H453.683C461.827 35.9663 465.853 40.3313 465.853 49.1627V56.3589L452.299 67.1865C452.577 66.7779 452.747 66.3999 452.747 66.0865V50.6854C452.747 48.9597 451.998 48.1476 450.406 48.1476H447.598V70.9421L434.491 81.4119L434.491 81.4118Z" fill="white"/>
<path fill-rule="evenodd" clip-rule="evenodd" d="M469 57.2095V66.208C469 75.0394 450.745 87.6525 450.745 87.6525V104.272L450.749 104.27C451.519 106.572 455.348 107.874 457.459 107.874L457.333 107.874H437.638V82.2623L450.745 71.7924V72.3456C450.745 72.3456 454.193 69.8789 455.446 68.037L469 57.2095Z" fill="white"/>
<path fill-rule="evenodd" clip-rule="evenodd" d="M175.999 53.0067L178.133 35.4043H186.484C186.089 43.0399 181.931 49.6267 175.999 53.0067ZM186.516 35.4043H187.631V52.8687C188.109 54.0544 188.894 54.9067 189.987 55.4256H198.44L198.587 56.6372H189.987C188.894 57.1561 188.109 58.0083 187.631 59.1941V77.7078C187.683 69.3339 192.262 62.0761 198.835 58.682L199.204 61.7242L189.777 73.6876L187.631 83.5041V85.9794L191.683 106.462H189.094L186.886 95.4455L184.677 106.462H182.464L186.516 85.9794V83.5041L184.369 73.6876L174.942 61.7242L175.311 58.6821C181.921 62.0957 186.515 69.4175 186.515 77.8523L186.516 77.708V59.1945C186.037 58.0086 185.252 57.1563 184.159 56.6373H175.559L175.706 55.4258H184.159C185.252 54.9069 186.037 54.0546 186.515 52.8686V35.4043H186.516ZM187.661 35.4043H196.013L198.147 53.0067C192.215 49.6268 188.056 43.0399 187.661 35.4043ZM199.699 65.812L204.626 106.462L203.736 106.462C202.443 106.462 200.097 105.664 199.625 104.254L195.106 84.4324L199.699 65.812ZM170.41 106.462L169.52 106.462L174.447 65.812L179.039 84.4322L174.521 104.254C174.049 105.664 171.703 106.462 170.41 106.462Z" fill="white"/>
<path fill-rule="evenodd" clip-rule="evenodd" d="M223.282 95.8825L223.281 107.324H210.175V106.353L223.282 95.8825Z" fill="white"/>
<path fill-rule="evenodd" clip-rule="evenodd" d="M207.528 105.491V35.4048H227.221L227.347 35.4052C225.236 35.4052 221.407 36.7068 220.637 39.0088L220.635 95.021L207.528 105.491L207.528 105.491Z" fill="white"/>
</svg>
