<svg width="31" height="31" viewBox="0 0 31 31" fill="none" xmlns="http://www.w3.org/2000/svg">
<path fill-rule="evenodd" clip-rule="evenodd" d="M15.1154 17.3111V27.5864C15.1153 27.6133 15.1152 27.6402 15.1152 27.6671C15.1152 21.1742 9.83045 15.8621 3.34741 15.8184H13.623C14.2677 16.1398 14.7941 16.6662 15.1154 17.3111Z" fill="white"/>
<path fill-rule="evenodd" clip-rule="evenodd" d="M17.3769 15.8584H27.6524C21.1962 15.902 15.928 21.1703 15.8844 27.6265V17.3509C16.2058 16.7062 16.7322 16.1798 17.3769 15.8584L17.3769 15.8584Z" fill="white"/>
<path fill-rule="evenodd" clip-rule="evenodd" d="M17.3368 15.1964H27.6121C27.639 15.1962 27.6659 15.1961 27.6928 15.1961C21.173 15.1961 15.8444 9.86748 15.8444 3.34766C15.8444 3.37456 15.8443 3.40145 15.8441 3.42832V13.7036C16.1655 14.3485 16.692 14.8749 17.3368 15.1964Z" fill="white"/>
<path fill-rule="evenodd" clip-rule="evenodd" d="M15.1558 13.6637V3.38818C15.1121 9.87124 9.80005 15.156 3.30713 15.156C3.33404 15.156 3.36094 15.1561 3.38781 15.1562H13.6631C14.308 14.8349 14.8344 14.3085 15.1558 13.6637Z" fill="white"/>
</svg>
