<svg width="31" height="31" viewBox="0 0 31 31" fill="none" xmlns="http://www.w3.org/2000/svg">
<path fill-rule="evenodd" clip-rule="evenodd" d="M15.1154 17.3106V27.5859C15.1153 27.6128 15.1152 27.6397 15.1152 27.6666C15.1152 21.1737 9.83045 15.8616 3.34741 15.8179H13.623C14.2677 16.1393 14.7941 16.6658 15.1154 17.3106Z" fill="#584EBE"/>
<path fill-rule="evenodd" clip-rule="evenodd" d="M17.3769 15.8582H27.6524C21.1962 15.9017 15.928 21.17 15.8844 27.6262V17.3506C16.2058 16.7059 16.7322 16.1796 17.3769 15.8582L17.3769 15.8582Z" fill="#584EBE"/>
<path fill-rule="evenodd" clip-rule="evenodd" d="M17.3368 15.1961H27.6121C27.639 15.1959 27.6659 15.1959 27.6928 15.1959C21.173 15.1959 15.8444 9.86724 15.8444 3.34741C15.8444 3.37432 15.8443 3.40121 15.8441 3.42807V13.7034C16.1655 14.3483 16.692 14.8747 17.3368 15.1961Z" fill="#584EBE"/>
<path fill-rule="evenodd" clip-rule="evenodd" d="M15.1558 13.6633V3.3877C15.1121 9.87075 9.80005 15.1555 3.30713 15.1555C3.33404 15.1555 3.36094 15.1556 3.38781 15.1557H13.6631C14.308 14.8344 14.8344 14.308 15.1558 13.6633Z" fill="#584EBE"/>
</svg>
