<svg width="53" height="53" viewBox="0 0 53 53" fill="none" xmlns="http://www.w3.org/2000/svg">
<path d="M6.32675 4.16558L1.59993 3.51306C1.7641 3.0147 1.67377 2.09928 3.45179e-05 2.42554C-0.00759574 1.45601 1.24721 0.446519 6.32675 4.16558Z" fill="white"/>
<path d="M24.1973 4.48902L19.3322 4.44563C18.8882 3.37761 15.1458 0.76162 14.3799 0C15.1478 0.838052 17.2542 2.16729 19.5359 0.779603C18.9422 1.69791 19.0433 3.7256 24.1973 4.48902Z" fill="white"/>
<path d="M28.7671 4.48902L33.6322 4.44563C34.0759 3.37761 37.8186 0.76162 38.5845 0C37.8166 0.838052 35.7102 2.16729 33.4285 0.779603C34.0222 1.69791 33.9211 3.7256 28.7671 4.48902Z" fill="white"/>
<path d="M26.4823 6.60082C26.4823 6.60082 27.3046 5.35251 27.6087 4.86944L26.4823 3.35449L25.3558 4.86944C25.66 5.35251 26.4823 6.60082 26.4823 6.60082Z" fill="white"/>
<path fill-rule="evenodd" clip-rule="evenodd" d="M26.0219 12.8258C25.9042 13.0793 25.7773 13.3113 25.6471 13.52H24.0486V12.4072H22.2502V10.0757H18.3162V9.36123H16.5178V11.1596H18.3162V10.5976H21.73V12.958H23.599V13.9696H25.336C25.1342 14.2318 24.9358 14.436 24.7624 14.5759C24.9484 14.789 25.1344 15.0409 25.3093 15.3184H22.915V16.2176H20.227V14.644H16.4055V16.5548H13.8202V15.8804H12.0219V17.6788H13.8202V17.1168H16.855V15.0936H19.7774V16.6672H23.4269V15.768H25.5704C25.7462 16.0972 25.9016 16.4487 26.022 16.8046V31.9784C26.7413 33.6869 24.5983 39.8839 23.4368 42.7687C24.2461 42.9486 25.7972 45.8411 26.4716 47.2647L20.964 42.5439C23.4818 40.8354 24.4859 29.1684 24.6732 23.5484L20.964 19.6144C9.63412 20.6035 8.7054 23.5484 8.81778 24.8972L4.097 25.4592L3.49846 20.9104C3.80593 16.3563 6.448 14.6538 7.84616 14.3742C5.43155 14.2864 3.01672 10.7261 1.86598 7.97554L1.80394 7.47427L1.51184 4.59961L6.00781 5.11485C5.59567 5.30217 5.96287 5.90162 10.7286 6.80084C15.4943 7.70006 17.7793 7.17554 19.1656 6.80084L19.9524 5.67686H24.6732L26.022 7.6037V12.8257L26.0219 12.8258Z" fill="white"/>
<path fill-rule="evenodd" clip-rule="evenodd" d="M6.33736 4.30246C1.25785 0.583238 0.00310069 1.59268 0.0106539 2.5623C1.6844 2.23605 1.77467 3.15134 1.61054 3.6498L6.33736 4.30246Z" fill="white"/>
<path fill-rule="evenodd" clip-rule="evenodd" d="M0.12915 7.97559L1.23618 16.9169L1.76167 20.9104C2.06914 16.3564 4.27243 14.6538 5.67059 14.3743C3.25598 14.2865 1.27989 10.7262 0.12915 7.97559Z" fill="white"/>
<path fill-rule="evenodd" clip-rule="evenodd" d="M26.9426 12.8258V7.6037L28.2914 5.67687H33.0122L33.799 6.80084C35.1853 7.17554 37.4702 7.70006 42.236 6.80084C47.0017 5.90162 47.3689 5.30217 46.9568 5.11485L51.4528 4.59961L51.1607 7.47427L51.0986 7.97554C49.9479 10.7261 47.533 14.2864 45.1184 14.3742C46.5166 14.6538 49.1587 16.3563 49.4661 20.9104L48.8676 25.4592L44.1468 24.8972C44.2592 23.5484 43.3305 20.6036 32.0006 19.6144L28.2914 23.5484C28.4787 29.1684 29.4828 40.8355 32.0006 42.5439L26.493 47.2647C27.1674 45.841 28.7185 42.9486 29.5278 42.7687C28.3663 39.8839 26.2233 33.6869 26.9426 31.9784V16.8046C27.063 16.4487 27.2184 16.0972 27.3942 15.768H29.5377V16.6672H33.1872V15.0936H36.1096V17.1168H39.1444V17.6788H40.9427V15.8804H39.1444V16.5548H36.5591V14.644H32.7376V16.2176H30.0496V15.3184H27.6553C27.8302 15.0409 28.0162 14.789 28.2022 14.5759C28.0288 14.436 27.8304 14.2318 27.6286 13.9696H29.3656V12.958H31.2346V10.5976H34.6484V11.1596H36.4468V9.36123H34.6484V10.0757H30.7144V12.4072H28.916V13.52H27.3175C27.1873 13.3113 27.0604 13.0793 26.9427 12.8258L26.9426 12.8258Z" fill="white"/>
<path fill-rule="evenodd" clip-rule="evenodd" d="M46.627 4.30246C51.7065 0.583238 52.9613 1.59268 52.9537 2.5623C51.28 2.23605 51.1897 3.15134 51.3538 3.6498L46.627 4.30246Z" fill="white"/>
<path fill-rule="evenodd" clip-rule="evenodd" d="M52.8352 7.97559L51.7282 16.9169L51.2027 20.9104C50.8952 16.3564 48.6919 14.6538 47.2938 14.3743C49.7084 14.2865 51.6845 10.7262 52.8352 7.97559Z" fill="white"/>
<path d="M24.0592 42.1821C24.5837 41.2829 25.7227 37.9558 26.0824 35.8877C26.532 37.0117 25.408 41.5077 24.0592 42.1821Z" fill="white"/>
<path d="M28.9219 42.2954C28.3974 41.3962 27.2583 38.0691 26.8987 36.001C26.4491 37.125 27.5731 41.621 28.9219 42.2954Z" fill="white"/>
<path d="M24.3253 42.7441C24.4182 42.9037 25.3464 43.3025 26.0891 45.2169C26.2748 44.3926 25.7177 43.0631 24.3253 42.7441Z" fill="white"/>
<path d="M28.5964 42.7441C28.5035 42.9037 27.5753 43.3025 26.8326 45.2169C26.6469 44.3926 27.204 43.0631 28.5964 42.7441Z" fill="white"/>
<path d="M33.8685 40.3841C35.4797 38.5109 40.5001 34.6517 47.6937 34.2021C45.146 34.7266 38.8141 36.6974 33.8685 40.3841Z" fill="white"/>
<path d="M34.2058 43.1938L35.3298 42.2946C31.8229 40.9458 38.5894 38.9601 42.4109 38.1358L50.7285 35.7754L42.1861 39.7094C34.1833 40.4287 35.8542 41.8825 37.6902 42.5194L39.3762 43.1938L27.4618 52.1857C28.1362 50.2749 34.1053 44.8798 34.2058 43.1938Z" fill="white"/>
<path d="M19.0959 40.3841C17.4848 38.5109 12.4644 34.6517 5.27079 34.2021C7.81844 34.7266 14.1504 36.6974 19.0959 40.3841Z" fill="white"/>
<path d="M18.7587 43.1938L17.6347 42.2946C21.1416 40.9458 14.3751 38.9601 10.5535 38.1358L2.23596 35.7754L10.7783 39.7094C18.7812 40.4287 17.1103 41.8825 15.2743 42.5194L13.5883 43.1938L25.5027 52.1857C24.8283 50.2749 18.8592 44.8798 18.7587 43.1938Z" fill="white"/>
<path d="M19.8946 39.4842C19.9845 38.3153 17.3843 36.1498 16.073 35.213C20.9287 35.213 22.5173 31.2415 22.7046 29.2559C23.0418 31.2791 19.7822 40.9454 19.8946 39.4842Z" fill="white"/>
<path d="M33.0698 39.4842C32.9799 38.3153 35.5802 36.1498 36.8914 35.213C32.0357 35.213 30.4471 31.2415 30.2598 29.2559C29.9226 31.2791 33.1822 40.9454 33.0698 39.4842Z" fill="white"/>
<path d="M26.4768 40.0964C26.4768 40.0964 27.2991 41.3448 27.6033 41.8278L26.4768 43.3428L25.3503 41.8278C25.6545 41.3448 26.4768 40.0964 26.4768 40.0964Z" fill="white"/>
</svg>
