<svg width="45" height="54" viewBox="0 0 45 54" fill="none" xmlns="http://www.w3.org/2000/svg">
<path fill-rule="evenodd" clip-rule="evenodd" d="M13.7251 6.37755C14.6308 9.09445 13.8939 11.423 13.7251 11.9803C12.9675 14.4823 12.8274 14.9254 12.4322 15.8591C11.8935 16.9366 11.0317 19.3501 11.8935 20.3844C12.7554 21.4188 13.7611 21.6056 14.1561 21.5696C12.4322 23.4013 12.3244 23.7245 12.109 24.0477C11.94 24.3014 11.2502 26.5877 11.2073 28.5903C11.2065 28.6275 11.2061 28.6648 11.2056 28.7021C11.2056 28.7021 11.8161 27.1398 12.2831 26.5472C12.75 25.9546 13.576 25.2974 14.007 25.0388C14.438 24.7802 14.6895 24.4283 14.7612 24.2846V26.3317C14.7252 26.9422 14.3733 28.3573 13.2528 29.1331C12.9099 29.3703 12.666 29.438 12.4986 29.5641C13.0373 29.8513 14.1794 30.6415 14.438 31.0725C14.6966 31.5035 14.9767 32.7604 15.0844 33.3351V34.6281C14.7972 34.2689 14.3518 33.5075 13.576 33.3351C12.9347 33.1927 12.421 32.893 12.2419 32.6919L12.4986 33.1197L12.8461 33.4672C13.0504 33.7172 13.4476 34.1906 13.7251 34.5203C15.1043 36.1581 20.0463 40.03 22.1292 40.9637V47.2129C21.6983 46.351 20.707 44.5408 20.1898 44.1961C19.5434 43.7651 19.7589 43.9806 18.5737 43.6573C17.3885 43.3341 12.3298 41.7393 10.0204 39.9076C7.97327 38.2841 7.07295 36.3723 6.07545 33.0983C5.06416 29.7796 6.29654 24.5173 6.68033 23.3149C6.78398 22.9903 6.70188 22.44 9.63104 14.5662C9.66853 14.4651 10.6007 11.6571 11.355 9.6099C11.9583 7.97218 11.3909 7.06001 11.0317 6.80853C10.924 6.73677 10.6007 6.59304 10.1698 6.59304C9.63104 6.59304 8.87682 6.70079 8.66133 8.31696C8.44584 9.93314 9.20006 10.7951 9.20006 10.9028C9.20006 11.0106 7.90712 10.0409 7.58388 9.6099C7.26065 9.17892 6.39869 7.77824 6.93741 5.83883C7.36839 4.2873 8.40447 3.88261 9.05094 3.77486C9.15868 3.77486 9.9157 3.72551 10.3439 3.77486C10.8108 3.82873 11.6597 4.00177 11.8523 4.0981C11.8523 4.0981 13.0787 4.43814 13.7251 6.37755ZM10.1672 25.373C10.0657 23.6476 11.3948 22.5109 12.109 22.2572C11.4692 22.2861 10.1131 21.7982 9.80623 19.6147C9.78985 21.7956 8.50338 22.8026 7.86208 23.0334C9.44701 22.5932 10.0471 24.3677 10.1672 25.373ZM13.7812 31.5283C13.626 31.188 12.5527 30.4648 12.0355 30.1459C12.0355 30.2521 12.2294 31.5283 13.1024 32.0601C13.8006 32.4855 14.1046 32.7335 14.1693 32.8044C14.1046 32.5208 13.9363 31.8685 13.7812 31.5283ZM12.8606 26.8972C12.5115 27.3712 12.1029 28.3879 11.9124 29.0083C12.0163 28.9857 13.2155 28.5082 13.5301 27.4626C13.7818 26.6261 13.9529 26.2485 14.007 26.1643C13.7456 26.2936 13.1256 26.5373 12.8606 26.8972ZM19.6421 41.4557C17.4031 40.4739 12.4458 37.6792 10.5266 34.3553C10.7186 35.2827 11.5437 37.5792 13.3092 39.3447C15.0747 41.1102 18.2666 41.4878 19.6421 41.4557Z" fill="white"/>
<path fill-rule="evenodd" clip-rule="evenodd" d="M30.8172 6.37755C29.9115 9.09445 30.6485 11.423 30.8172 11.9803C31.5749 14.4824 31.715 14.9254 32.1102 15.8591C32.6489 16.9366 33.5106 19.3501 32.6489 20.3844C31.7869 21.4188 30.7812 21.6056 30.3862 21.5696C32.1102 23.4013 32.2179 23.7245 32.4334 24.0477C32.6023 24.3014 33.2921 26.5877 33.335 28.5903C33.3359 28.6276 33.3363 28.6648 33.3367 28.7021C33.3367 28.7021 32.7262 27.1398 32.2593 26.5472C31.7923 25.9546 30.9663 25.2974 30.5354 25.0388C30.1044 24.7802 29.8529 24.4283 29.7811 24.2846V26.3317C29.8171 26.9422 30.169 28.3573 31.2896 29.1331C31.6324 29.3704 31.8764 29.438 32.0438 29.5641C31.5051 29.8513 30.363 30.6415 30.1044 31.0725C29.8458 31.5035 29.5657 32.7604 29.4579 33.3352V34.6281C29.7452 34.2689 30.1906 33.5076 30.9663 33.3352C31.6076 33.1927 32.1214 32.893 32.3004 32.6919L32.0438 33.1197L31.6962 33.4673C31.4919 33.7172 31.0948 34.1907 30.8172 34.5204C29.4381 36.1581 24.496 40.03 22.4131 40.9637V47.2129C22.8441 46.351 23.8353 44.5409 24.3525 44.1961C24.999 43.7651 24.7835 43.9806 25.9687 43.6574C27.1539 43.3341 32.2125 41.7393 34.5219 39.9076C36.5691 38.2841 37.4694 36.3723 38.4669 33.0983C39.4782 29.7796 38.2458 24.5173 37.862 23.3149C37.7584 22.9903 37.8405 22.44 34.9113 14.5662C34.8738 14.4651 33.9416 11.6571 33.1874 9.60991C32.584 7.97218 33.1514 7.06001 33.5106 6.80853C33.6184 6.73677 33.9416 6.59304 34.3726 6.59304C34.9113 6.59304 35.6655 6.70079 35.881 8.31696C36.0965 9.93314 35.3423 10.7951 35.3423 10.9028C35.3423 11.0106 36.6352 10.0409 36.9585 9.60991C37.2817 9.17893 38.1437 7.77824 37.6049 5.83883C37.174 4.2873 36.1379 3.88261 35.4914 3.77486C35.3837 3.77486 34.6267 3.72551 34.1985 3.77486C33.7315 3.82873 32.8827 4.00177 32.69 4.0981C32.69 4.0981 31.4637 4.43814 30.8172 6.37755ZM34.3752 25.373C34.4767 23.6476 33.1475 22.5109 32.4334 22.2572C33.0732 22.2861 34.4293 21.7982 34.7361 19.6147C34.7525 21.7957 36.039 22.8026 36.6803 23.0334C35.0953 22.5932 34.4952 24.3678 34.3752 25.373ZM30.7612 31.5283C30.9163 31.188 31.9897 30.4648 32.5069 30.1459C32.5069 30.2521 32.3129 31.5283 31.44 32.0601C30.7418 32.4855 30.4377 32.7335 30.3731 32.8044C30.4377 32.5208 30.606 31.8685 30.7612 31.5283ZM31.6818 26.8972C32.0309 27.3713 32.4394 28.3879 32.6299 29.0083C32.5261 28.9857 31.3269 28.5082 31.0122 27.4626C30.7605 26.6261 30.5894 26.2486 30.5354 26.1643C30.7968 26.2936 31.4167 26.5373 31.6818 26.8972ZM24.9003 41.4557C27.1392 40.4739 32.0966 37.6792 34.0157 34.3553C33.8237 35.2828 32.9986 37.5792 31.2331 39.3448C29.4676 41.1103 26.2758 41.4878 24.9003 41.4557Z" fill="white"/>
<path d="M27.4273 8.04108L28.9325 8.13977L29.0271 36.1367L27.6264 37.3219L27.4273 8.04108ZM24.2863 7.83507V39.8L25.7947 38.7226L25.5999 7.7437L24.2863 7.83507ZM25.5887 7.9204L25.5999 6.09046L24.2863 6.82507V7.83507L25.5887 7.9204ZM28.9325 8.13977L27.4273 8.04108L27.4073 5.09727L28.9194 4.24414L28.9325 8.13977ZM25.7947 38.7226L27.6264 37.3219ZM25.7947 38.7226L27.6264 37.3219Z" fill="white"/>
<path d="M28.1651 1.83167L29.0271 3.12461L24.3941 5.71049L25.9025 3.77108L26.2688 3.29528L27.7342 0L28.1651 1.83167Z" fill="white"/>
<path fill-rule="evenodd" clip-rule="evenodd" d="M30.5116 8.24328L23.7473 7.7998L22.3466 10.8167L23.7473 9.73922L30.5784 9.26449C30.5616 8.92897 30.5116 8.57923 30.5116 8.24328Z" fill="white"/>
<path d="M17.1152 8.04108L15.61 8.13977L15.5154 36.1367L16.9161 37.3219L17.1152 8.04108ZM20.2562 7.83507V39.8L18.7477 38.7226L18.9425 7.7437L20.2562 7.83507ZM18.9537 7.9204L18.9425 6.09046L20.2562 6.82506V7.83507L18.9537 7.9204ZM15.61 8.13977L17.1152 8.04108L17.1352 5.09727L15.6231 4.24414L15.61 8.13977ZM18.7477 38.7226L16.9161 37.3219ZM18.7477 38.7226L16.9161 37.3219Z" fill="white"/>
<path d="M16.3773 1.83167L15.5154 3.12461L20.1484 5.71049L18.64 3.77108L18.2737 3.29527L16.8083 0L16.3773 1.83167Z" fill="white"/>
<path d="M22.2826 53.5675C21.0276 52.2114 17.3871 48.4886 17.1104 45.0518L15.3255 47.9178L8.51196 45.3075L18.4676 51.5624L22.2826 53.5675Z" fill="white"/>
<path d="M10.3436 44.11L7.32678 42.6016L8.72747 44.8642L14.7612 47.2346L12.8218 45.2952L10.3436 44.11Z" fill="white"/>
<path d="M2.78478 37.9355L3.6295 39.9977L12.0674 44.4327L5.75531 38.5333L4.82698 37.1711L0 34.3047L2.78478 37.9355Z" fill="white"/>
<path d="M1.18532 32.5817L0.323364 33.8746L4.9564 36.4605L3.44797 34.5211L3.08164 34.0453L1.6163 30.75L1.18532 32.5817Z" fill="white"/>
<path d="M22.4109 53.6759C23.6659 52.3198 27.3064 48.597 27.5831 45.1602L29.368 48.0262L36.1816 45.4159L26.2259 51.6708L22.4109 53.6759Z" fill="white"/>
<path d="M34.35 44.2174L37.3669 42.709L35.9662 44.9716L29.9325 47.342L31.8719 45.4026L34.35 44.2174Z" fill="white"/>
<path d="M41.9088 38.0439L41.064 40.1061L32.6261 44.5411L38.9382 38.6416L39.8666 37.2795L44.6935 34.4131L41.9088 38.0439Z" fill="white"/>
<path d="M43.5084 32.6891L44.3703 33.982L39.7373 36.5679L41.2457 34.6285L41.6121 34.1527L43.0774 30.8574L43.5084 32.6891Z" fill="white"/>
<path d="M22.2773 49.6212L21.5782 47.757L20.5296 46.9415L19.8306 45.7764L20.8792 48.6891L22.2773 49.6212ZM22.2773 49.6212L20.8792 49.9707L20.5296 51.0193L21.8112 50.7863L22.2773 49.6212Z" fill="white"/>
<path d="M22.2651 49.6212L22.9642 47.757L24.0128 46.9415L24.7119 45.7764L23.6633 48.6891L22.2651 49.6212ZM22.2651 49.6212L23.6633 49.9707L24.0128 51.0193L22.7312 50.7863L22.2651 49.6212Z" fill="white"/>
<path fill-rule="evenodd" clip-rule="evenodd" d="M14.0305 8.24328L20.7948 7.7998L22.1955 10.8167L20.7948 9.73922L13.9637 9.26449C13.9806 8.92897 14.0305 8.57923 14.0305 8.24328Z" fill="white"/>
</svg>
