<svg width="42" height="54" viewBox="0 0 42 54" fill="none" xmlns="http://www.w3.org/2000/svg">
<path d="M19.6122 31.1294C20.0709 30.7372 20.3104 30.4227 20.7591 29.4756C21.1032 30.2784 21.5619 30.8519 21.906 31.1294C21.4472 31.6547 21.0766 32.4468 20.7591 33.2604C20.415 32.4576 20.0271 31.6749 19.6122 31.1294Z" fill="white"/>
<path fill-rule="evenodd" clip-rule="evenodd" d="M20.7592 42.8947C17.1274 40.6772 10.0351 35.6269 9.17533 33.7193C7.7605 30.5805 2.82898 19.9563 0 14.3365C5.32169 14.4282 16.0568 4.81705 20.7592 0C25.4615 4.81705 36.1967 14.4282 41.5184 14.3365C38.6894 19.9563 33.5246 31.1599 32.343 33.7193C31.4661 35.6191 24.391 40.6772 20.7592 42.8947ZM17.2168 28.1311L20.071 35.0956L20.7592 36.836L21.4473 35.0956L24.3016 28.1311C24.1577 28.3683 23.1634 27.8444 23.053 24.3146C22.9353 20.5502 26.188 18.9241 27.6407 18.58C22.686 18.3048 21.1416 11.8896 20.9886 8.83126C21.218 8.02842 21.5478 7.77976 21.9061 7.38844C21.5561 7.10606 21.1721 6.69799 20.7592 5.73458C20.3105 6.68171 19.963 7.08863 19.6123 7.38844C19.9066 7.74352 20.3057 8.0174 20.5298 8.83126C20.3768 11.8896 18.8324 18.3048 13.8777 18.58C15.3304 18.9241 18.583 20.5502 18.4654 24.3146C18.355 27.8444 17.3606 28.3683 17.2168 28.1311ZM24.3018 28.1311C24.3075 28.1217 24.3119 28.1112 24.3149 28.0995L24.3018 28.1311ZM17.2168 28.1311L17.2037 28.0995C17.2067 28.1112 17.2111 28.1217 17.2168 28.1311ZM20.3004 1.83507C18.9624 4.24359 15.9192 9.3359 14.4511 10.4369C12.9831 11.538 7.79903 13.8013 5.39051 14.7952L16.6303 11.3545L20.3004 1.83507ZM21.218 1.83507L24.8881 11.3545L36.1279 14.7952C33.7193 13.8013 28.5353 11.538 27.0672 10.4369C25.5992 9.3359 22.5559 4.24359 21.218 1.83507ZM33.0312 23.9706C30.5539 32.7789 24.8117 38.3453 22.2502 40.0274C24.4676 38.8805 29.1776 36.1279 30.2786 34.2928C31.3796 32.4577 32.5724 26.6468 33.0312 23.9706ZM8.48718 23.9706C8.94595 26.6468 10.1387 32.4577 11.2398 34.2928C12.3408 36.1279 17.0507 38.8805 19.2682 40.0274C16.7067 38.3453 10.9645 32.7789 8.48718 23.9706Z" fill="white"/>
<path fill-rule="evenodd" clip-rule="evenodd" d="M20.7592 28.214C20.3922 28.214 19.9946 27.1053 19.9563 26.6083L19.4976 22.7088L18.4653 20.0708L20.7592 16.0566L23.053 20.0708L22.0208 22.7088L21.562 26.6083C21.5237 27.1053 21.1262 28.214 20.7592 28.214ZM21.1032 21.159C21.4964 21.0187 21.7914 20.6338 21.7914 20.1855C21.7914 19.6158 21.329 19.1533 20.7592 19.1533C20.1894 19.1533 19.7269 19.6158 19.7269 20.1855C19.7269 20.6338 20.0157 21.0164 20.4151 21.159C20.3768 22.306 20.3233 24.5897 20.4151 24.7732C20.5068 24.9567 20.6828 25.1556 20.7592 25.232C20.8355 25.1556 21.0115 24.9567 21.1032 24.7732C21.195 24.5897 21.1415 22.306 21.1032 21.159Z" fill="white"/>
<path d="M17.089 49.2026L14.9099 43.1239L11.2398 39.6832L7.9137 36.7012L15.3687 42.2064L16.8596 44.959L17.089 46.2206L17.6625 48.7438L19.4976 50.9229L17.089 49.2026Z" fill="white"/>
<path d="M13.7631 43.5833L15.9422 49.7767L11.8134 44.2715L9.7489 40.1426L13.7631 43.5833Z" fill="white"/>
<path d="M7.56966 49.0882L8.4872 45.074L6.42275 38.6512L0.802856 25.0029L7.91374 38.6512L9.63411 45.074L12.7308 48.1706L9.40473 48.4L14.3365 50.9232V49.0882L17.0891 53.6758L7.56966 49.0882Z" fill="white"/>
<path d="M24.7736 49.2026L26.9528 43.1239L30.6229 39.6832L33.949 36.7012L26.494 42.2064L25.003 44.959L24.7736 46.2206L24.2002 48.7438L22.3651 50.9229L24.7736 49.2026Z" fill="white"/>
<path d="M28.0996 43.5833L25.9204 49.7767L30.0493 44.2715L32.1138 40.1426L28.0996 43.5833Z" fill="white"/>
<path d="M34.293 49.0882L33.3754 45.074L35.4399 38.6512L41.0598 25.0029L33.9489 38.6512L32.2285 45.074L29.1318 48.1706L32.4579 48.4L27.5262 50.9232V49.0882L24.7736 53.6758L34.293 49.0882Z" fill="white"/>
<path d="M2.75251 10.8958C6.07857 9.5959 13.8317 5.64294 18.2359 0.229492L11.9278 1.03233L16.2861 1.37641C13.1131 3.86132 6.46852 8.64786 5.27573 7.91383L2.63782 11.0105" fill="white"/>
<path d="M38.7658 10.8958C35.4398 9.5959 27.6866 5.64294 23.2825 0.229492L29.5905 1.03233L25.2322 1.37641C28.4053 3.86132 35.0498 8.64786 36.2426 7.91383L38.8805 11.0105" fill="white"/>
<path fill-rule="evenodd" clip-rule="evenodd" d="M20.8739 44.2705L22.9383 45.6899L22.3649 48.1342L20.8739 49.4316L19.3829 48.1342L18.8094 45.6899L20.8739 44.2705ZM20.1857 45.9909L20.6445 46.679V48.17L20.8739 48.6288L21.1033 48.17V46.679L21.562 45.9909L20.8739 45.188L20.1857 45.9909Z" fill="white"/>
</svg>
